<svg xmlns="http://www.w3.org/2000/svg" width="19.755" height="18.479" viewBox="0 0 19.755 18.479">
  <g id="Group_517" data-name="Group 517" transform="translate(-319.771 -116)">
    <g id="exclusive_epass" transform="translate(319.771 116)">
      <path id="Path_1688" data-name="Path 1688" d="M17.491,98.833H2.264A2.416,2.416,0,0,1,0,96.292V84.743A2.416,2.416,0,0,1,2.264,82.2H7.2a.7.7,0,0,1,0,1.386H2.264a1.1,1.1,0,0,0-1.029,1.155V96.292a1.1,1.1,0,0,0,1.029,1.155H17.491a1.1,1.1,0,0,0,1.029-1.155V84.743a1.1,1.1,0,0,0-1.029-1.155H12.552a.7.7,0,0,1,0-1.386h4.939a2.416,2.416,0,0,1,2.264,2.541V96.292A2.416,2.416,0,0,1,17.491,98.833Zm0,0" transform="translate(0 -80.354)" fill="#cbccd0"/>
      <path id="Path_1689" data-name="Path 1689" d="M333.946,5.082h-3.7a1.538,1.538,0,0,1-1.44-1.617V1.617A1.538,1.538,0,0,1,330.242,0h3.7a1.538,1.538,0,0,1,1.44,1.617V3.465A1.538,1.538,0,0,1,333.946,5.082Zm-3.7-3.7a.22.22,0,0,0-.206.231V3.465a.219.219,0,0,0,.206.231h3.7a.219.219,0,0,0,.206-.231V1.617a.219.219,0,0,0-.206-.231Zm0,0" transform="translate(-322.217)" fill="#cbccd0"/>
      <path id="Path_1690" data-name="Path 1690" d="M207.56,292.316a2.325,2.325,0,1,1,2.058-2.31A2.2,2.2,0,0,1,207.56,292.316Zm0-3.234a.93.93,0,1,0,.823.924A.879.879,0,0,0,207.56,289.083Zm0,0" transform="translate(-201.386 -281.229)" fill="#cbccd0"/>
      <path id="Path_1691" data-name="Path 1691" d="M130.09,537.992a.659.659,0,0,1-.617-.693v-.462a1.1,1.1,0,0,0-1.029-1.155h-2.881a1.1,1.1,0,0,0-1.029,1.155v.462a.621.621,0,1,1-1.235,0v-.462a2.416,2.416,0,0,1,2.264-2.541h2.881a2.416,2.416,0,0,1,2.264,2.541v.462A.659.659,0,0,1,130.09,537.992Zm0,0" transform="translate(-120.83 -522.285)" fill="#cbccd0"/>
      <path id="Path_1692" data-name="Path 1692" d="M580.545,309.635h-4.527a.7.7,0,0,1,0-1.386h4.527a.7.7,0,0,1,0,1.386Zm0,0" transform="translate(-563.877 -301.32)" fill="#cbccd0"/>
      <path id="Path_1693" data-name="Path 1693" d="M580.545,474.032h-4.527a.7.7,0,0,1,0-1.386h4.527a.7.7,0,0,1,0,1.386Zm0,0" transform="translate(-563.877 -462.021)" fill="#cbccd0"/>
      <path id="Path_1694" data-name="Path 1694" d="M580.545,638.436h-4.527a.7.7,0,0,1,0-1.386h4.527a.7.7,0,0,1,0,1.386Zm0,0" transform="translate(-563.877 -622.73)" fill="#cbccd0"/>
    </g>
  </g>
</svg>
