<svg id="Group_516" data-name="Group 516" xmlns="http://www.w3.org/2000/svg" width="16.024" height="16.024" viewBox="0 0 16.024 16.024">
  <path id="Path_324" data-name="Path 324" d="M15.926,14.982,1.042.1A.334.334,0,0,0,.57.1L.1.57a.334.334,0,0,0,0,.472L2.858,3.8A8.58,8.58,0,0,0,.016,7.91a.336.336,0,0,0,0,.2,8.413,8.413,0,0,0,8,5.907,8.25,8.25,0,0,0,4.023-1.042l2.947,2.947a.334.334,0,0,0,.472,0l.472-.472A.334.334,0,0,0,15.926,14.982ZM5.341,8.012a2.674,2.674,0,0,0,2.671,2.671A2.616,2.616,0,0,0,9.356,10.3l1.451,1.451A4.667,4.667,0,0,1,4.273,5.217L5.724,6.668A2.616,2.616,0,0,0,5.341,8.012Z" transform="translate(0 0)" fill="#cbccd0"/>
  <path id="Path_325" data-name="Path 325" d="M246.193,170.953a.334.334,0,0,0,.072.365l2.308,2.308a.334.334,0,0,0,.57-.24,2.652,2.652,0,0,0-2.638-2.638A.364.364,0,0,0,246.193,170.953Z" transform="translate(-238.463 -165.405)" fill="#cbccd0"/>
  <path id="Path_326" data-name="Path 326" d="M156.4,65.729a.334.334,0,0,0,.38.065,4.624,4.624,0,0,1,2.011-.46,4.679,4.679,0,0,1,4.674,4.674,4.624,4.624,0,0,1-.46,2.011.334.334,0,0,0,.065.38l1.157,1.157a.334.334,0,0,0,.236.1h0a.335.335,0,0,0,.237-.1,8.7,8.7,0,0,0,2.087-3.445.336.336,0,0,0,0-.2,8.413,8.413,0,0,0-8-5.907,8.315,8.315,0,0,0-2.924.529.334.334,0,0,0-.119.549Z" transform="translate(-150.78 -61.996)" fill="#cbccd0"/>
</svg>
