<svg id="change-password" xmlns="http://www.w3.org/2000/svg" width="11.751" height="17.626" viewBox="0 0 11.751 17.626">
  <path id="Path_1476" data-name="Path 1476" d="M184.065,233.334a.735.735,0,0,0-.734.735v1.469a.734.734,0,1,0,1.469,0v-1.469A.734.734,0,0,0,184.065,233.334Z" transform="translate(-178.189 -223.052)" fill="#cbccd0" fill-rule="evenodd"/>
  <g id="Group_416" data-name="Group 416" transform="translate(0.734)">
    <path id="Path_1477" data-name="Path 1477" d="M88.461,5.867h.026a5.573,5.573,0,0,1,.709.048l.013,0V2.938a2.938,2.938,0,0,0-5.876,0V5.876H84.8V2.938a1.469,1.469,0,1,1,2.938,0V5.917l.012,0A5.571,5.571,0,0,1,88.461,5.867Z" transform="translate(-83.333)" fill="#cbccd0"/>
  </g>
  <path id="Path_1478" data-name="Path 1478" d="M77.107,142.692c.088-.109.172-.222.252-.337.03-.043.06-.085.088-.129q.121-.183.228-.375c.021-.038.041-.076.062-.114.073-.138.141-.278.2-.421.012-.028.023-.057.035-.085.065-.157.125-.316.176-.479l.007-.023a5.856,5.856,0,0,0,.26-1.728c0-.12-.01-.237-.017-.355-.006-.086-.008-.172-.017-.257-.014-.135-.034-.269-.057-.4-.015-.084-.033-.167-.051-.25q-.063-.286-.154-.56c-.041-.124-.083-.247-.131-.368-.037-.092-.079-.182-.12-.272s-.1-.2-.148-.3c-.075-.14-.155-.277-.241-.41-.073-.114-.148-.227-.228-.335-.069-.093-.144-.18-.219-.269s-.143-.165-.218-.245-.145-.154-.221-.227c-.1-.1-.215-.194-.326-.286s-.245-.192-.373-.281c-.078-.054-.156-.107-.236-.158-.1-.064-.2-.125-.309-.183-.123-.067-.25-.128-.378-.186s-.282-.121-.427-.174c-.116-.042-.233-.082-.353-.117s-.227-.066-.343-.093c-.051-.012-.1-.02-.154-.03-.139-.028-.278-.055-.42-.073v-.007l-.013,0a5.576,5.576,0,0,0-.709-.048h-.026a5.573,5.573,0,0,0-.709.048l-.012,0v.007c-.142.018-.281.045-.419.073-.052.01-.1.019-.155.031-.116.027-.23.059-.344.093s-.235.074-.35.116c-.148.054-.293.113-.435.178-.125.057-.25.116-.37.182-.105.058-.208.12-.309.183-.081.051-.161.1-.239.16-.126.088-.249.179-.367.277s-.225.188-.331.289c-.077.073-.149.151-.221.228s-.147.161-.218.244-.149.175-.218.267c-.085.114-.163.232-.24.352s-.157.26-.229.394q-.078.146-.149.3c-.042.09-.083.181-.121.273-.048.119-.09.241-.13.364a5.822,5.822,0,0,0-.155.564c-.018.083-.037.165-.051.249-.023.133-.043.266-.057.4-.009.084-.011.169-.017.254-.007.119-.017.237-.017.357s.011.267.02.4c.006.082.008.165.017.246.016.145.039.287.066.429.015.082.033.164.052.245.033.142.066.284.109.422.008.025.018.049.027.074a5.838,5.838,0,0,0,.355.849c.033.065.065.13.1.194q.106.189.224.369c.039.059.081.116.122.174a5.918,5.918,0,0,0,.622.744l.008.009c.1.1.214.2.325.3.056.048.112.1.169.141.113.09.228.178.347.26.052.035.106.067.159.1a5.845,5.845,0,0,0,1.323.63c.045.015.09.03.136.044q.224.068.454.117c.05.011.1.02.152.029.16.03.321.057.485.074h.018c.192.019.387.03.584.03.107,0,.211-.01.317-.016.123-.007.246-.013.367-.027s.254-.035.38-.058.252-.053.376-.084.25-.063.372-.1c.186-.061.367-.13.544-.208.089-.039.175-.083.262-.126q.209-.105.409-.226c.083-.05.168-.1.248-.151l.03-.021a5.912,5.912,0,0,0,.76-.621c.038-.036.077-.071.114-.108.1-.1.189-.2.28-.308C77.035,142.777,77.072,142.735,77.107,142.692Zm-4.565.728a4.42,4.42,0,1,1,4.42-4.42A4.425,4.425,0,0,1,72.542,143.42Z" transform="translate(-66.666 -127.25)" fill="#cbccd0"/>
</svg>
