<svg id="account-details" xmlns="http://www.w3.org/2000/svg" width="12.819" height="17.444" viewBox="0 0 12.819 17.444">
  <path id="Path_1474" data-name="Path 1474" d="M104.361,0a4.361,4.361,0,1,0,4.361,4.361A4.361,4.361,0,0,0,104.361,0Zm0,7.268a2.907,2.907,0,1,1,2.907-2.907A2.907,2.907,0,0,1,104.361,7.268Z" transform="translate(-97.951)" fill="#cbccd0" fill-rule="evenodd"/>
  <path id="Path_1475" data-name="Path 1475" d="M59.43,233.333c-4.08,0-5.935,3.325-6.41,7.268h1.443c.373-3.159,1.689-5.815,4.967-5.815s4.594,2.655,4.967,5.815h1.443C65.365,236.658,63.509,233.333,59.43,233.333Z" transform="translate(-53.02 -223.157)" fill="#cbccd0" fill-rule="evenodd"/>
</svg>
