<svg xmlns="http://www.w3.org/2000/svg" xmlns:xlink="http://www.w3.org/1999/xlink" width="480.744" height="424.315" viewBox="0 0 480.744 424.315">
  <defs>
    <linearGradient id="linear-gradient" x1="0.823" y1="0.007" x2="1.601" y2="1.043" gradientUnits="objectBoundingBox">
      <stop offset="0" stop-color="gray" stop-opacity="0.251"/>
      <stop offset="0.54" stop-color="gray" stop-opacity="0.122"/>
      <stop offset="1" stop-color="gray" stop-opacity="0.102"/>
    </linearGradient>
    <filter id="Path_1449" x="78.002" y="3.793" width="213.005" height="362.062" filterUnits="userSpaceOnUse">
      <feOffset dy="10" input="SourceAlpha"/>
      <feGaussianBlur stdDeviation="5" result="blur"/>
      <feFlood flood-color="#44a6ff" flood-opacity="0.2"/>
      <feComposite operator="in" in2="blur"/>
      <feComposite in="SourceGraphic"/>
    </filter>
    <linearGradient id="linear-gradient-2" x1="0.824" y1="-0.231" x2="1.599" y2="0.806" xlink:href="#linear-gradient"/>
    <linearGradient id="linear-gradient-3" x1="0.5" y1="0.217" x2="0.5" y2="1.217" xlink:href="#linear-gradient"/>
    <filter id="Rectangle_117" x="263.648" y="175.142" width="119.33" height="37.181" filterUnits="userSpaceOnUse">
      <feOffset dy="10" input="SourceAlpha"/>
      <feGaussianBlur stdDeviation="5" result="blur-2"/>
      <feFlood flood-color="#44a6ff" flood-opacity="0.2"/>
      <feComposite operator="in" in2="blur-2"/>
      <feComposite in="SourceGraphic"/>
    </filter>
    <filter id="Rectangle_118" x="263.648" y="189.509" width="119.33" height="37.181" filterUnits="userSpaceOnUse">
      <feOffset dy="10" input="SourceAlpha"/>
      <feGaussianBlur stdDeviation="5" result="blur-3"/>
      <feFlood flood-color="#44a6ff" flood-opacity="0.2"/>
      <feComposite operator="in" in2="blur-3"/>
      <feComposite in="SourceGraphic"/>
    </filter>
    <filter id="Rectangle_121" x="288.311" y="107.177" width="70.004" height="42.709" filterUnits="userSpaceOnUse">
      <feOffset dy="10" input="SourceAlpha"/>
      <feGaussianBlur stdDeviation="5" result="blur-4"/>
      <feFlood flood-color="#44a6ff" flood-opacity="0.2"/>
      <feComposite operator="in" in2="blur-4"/>
      <feComposite in="SourceGraphic"/>
    </filter>
    <filter id="Ellipse_15" x="202.507" y="165.861" width="63.742" height="64.182" filterUnits="userSpaceOnUse">
      <feOffset dy="10" input="SourceAlpha"/>
      <feGaussianBlur stdDeviation="5" result="blur-5"/>
      <feFlood flood-color="#44a6ff" flood-opacity="0.2"/>
      <feComposite operator="in" in2="blur-5"/>
      <feComposite in="SourceGraphic"/>
    </filter>
    <linearGradient id="linear-gradient-4" x1="87.867" y1="-301.532" x2="87.867" y2="-300.525" xlink:href="#linear-gradient"/>
    <linearGradient id="linear-gradient-5" x1="0.819" y1="0.109" x2="0.819" y2="1.109" xlink:href="#linear-gradient"/>
    <linearGradient id="linear-gradient-6" x1="1.287" y1="-0.835" x2="1.287" y2="0.165" xlink:href="#linear-gradient"/>
  </defs>
  <g id="Group_428" data-name="Group 428" transform="translate(-980.734 -406.54)">
    <g id="illustration" transform="translate(980.734 406.54)">
      <g id="app_frame" data-name="app frame" transform="translate(85.492 0)">
        <g id="Group_403" data-name="Group 403" transform="translate(0 0)">
          <g id="Group_401" data-name="Group 401" transform="translate(0)">
            <path id="Path_1447" data-name="Path 1447" d="M189.69.569,7.475,1.015A7.521,7.521,0,0,0,0,8.577L.83,347.221a7.521,7.521,0,0,0,7.51,7.531h0l182.216-.446a7.521,7.521,0,0,0,7.47-7.567L197.18,8.095A7.521,7.521,0,0,0,189.69.569Z" transform="translate(0 -0.28)" fill="url(#linear-gradient)"/>
            <path id="Path_1448" data-name="Path 1448" d="M12.166.439,190.312,0a6.889,6.889,0,0,1,6.878,6.9L198,342.244a6.89,6.89,0,0,1-6.844,6.935l-178.146.439a6.889,6.889,0,0,1-6.878-6.9L5.321,7.373A6.89,6.89,0,0,1,12.166.439Z" transform="translate(-2.645 0)" fill="#fff"/>
            <g transform="matrix(1, 0, 0, 1, -85.49, 0)" filter="url(#Path_1449)">
              <path id="Path_1449-2" data-name="Path 1449" d="M197.367,105.305h0l-.191-80.638a7.319,7.319,0,0,0-7.3-7.328l-35.638.086a15.6,15.6,0,0,1-15.3,13.379l-66.272.162A15.593,15.593,0,0,1,57.3,17.663L22.2,17.749a7.319,7.319,0,0,0-7.268,7.364l.2,81.318.568,235.656a7.318,7.318,0,0,0,7.319,7.313l167.674-.411a7.319,7.319,0,0,0,7.248-7.349Z" transform="translate(78.07 -8.55)" fill="#8472fc"/>
            </g>
            <path id="Path_1450" data-name="Path 1450" d="M151.107,25.984l40.739-.617a1.01,1.01,0,0,1,1.021,1l.01.664a1.011,1.011,0,0,1-.991,1.029l-40.739.617a1.01,1.01,0,0,1-1.021-1l-.01-.664A1.011,1.011,0,0,1,151.107,25.984Z" transform="translate(-74.606 -12.502)" fill="#dbdbdb"/>
            <ellipse id="Ellipse_5" data-name="Ellipse 5" cx="1.605" cy="1.618" rx="1.605" ry="1.618" transform="translate(125.744 12.17)" fill="#dbdbdb"/>
            <rect id="Rectangle_104" data-name="Rectangle 104" width="89.33" height="7.181" transform="translate(83.55 52.505)" fill="#e0e0e0"/>
            <rect id="Rectangle_105" data-name="Rectangle 105" width="89.33" height="7.181" transform="translate(83.55 66.868)" fill="#e0e0e0"/>
            <ellipse id="Ellipse_6" data-name="Ellipse 6" cx="16.871" cy="17.091" rx="16.871" ry="17.091" transform="translate(22.409 43.224)" fill="#f5f5f5"/>
            <rect id="Rectangle_106" data-name="Rectangle 106" width="89.33" height="7.181" transform="translate(83.55 107.207)" fill="#e0e0e0"/>
            <rect id="Rectangle_107" data-name="Rectangle 107" width="89.33" height="7.181" transform="translate(83.55 121.57)" fill="#e0e0e0"/>
            <ellipse id="Ellipse_11" data-name="Ellipse 11" cx="16.871" cy="17.091" rx="16.871" ry="17.091" transform="translate(22.409 97.926)" fill="#e0e0e0"/>
            <rect id="Rectangle_108" data-name="Rectangle 108" width="89.33" height="7.181" transform="translate(83.55 161.909)" fill="#e0e0e0"/>
            <rect id="Rectangle_109" data-name="Rectangle 109" width="89.33" height="7.181" transform="translate(83.55 176.272)" fill="#e0e0e0"/>
            <ellipse id="Ellipse_12" data-name="Ellipse 12" cx="16.871" cy="17.091" rx="16.871" ry="17.091" transform="translate(22.409 152.628)" fill="#e0e0e0"/>
            <rect id="Rectangle_110" data-name="Rectangle 110" width="89.33" height="7.181" transform="translate(83.55 216.611)" fill="#e0e0e0"/>
            <rect id="Rectangle_111" data-name="Rectangle 111" width="89.33" height="7.181" transform="translate(83.55 230.974)" fill="#e0e0e0"/>
            <ellipse id="Ellipse_13" data-name="Ellipse 13" cx="16.871" cy="17.091" rx="16.871" ry="17.091" transform="translate(22.409 207.33)" fill="#e0e0e0"/>
            <rect id="Rectangle_112" data-name="Rectangle 112" width="89.33" height="7.181" transform="translate(83.55 271.313)" fill="#e0e0e0"/>
            <rect id="Rectangle_113" data-name="Rectangle 113" width="89.33" height="7.181" transform="translate(83.55 285.676)" fill="#e0e0e0"/>
            <ellipse id="Ellipse_14" data-name="Ellipse 14" cx="16.871" cy="17.091" rx="16.871" ry="17.091" transform="translate(22.409 262.033)" fill="#e0e0e0"/>
          </g>
          <path id="Path_1458" data-name="Path 1458" d="M422.84,84.458,240.62,84.9a7.521,7.521,0,0,0-7.47,7.567l.83,336.986a7.521,7.521,0,0,0,7.51,7.531h0l182.226-.446a7.521,7.521,0,0,0,7.46-7.557L430.345,92a7.521,7.521,0,0,0-7.5-7.541Z" transform="translate(-115.873 -41.625)" fill="url(#linear-gradient-2)"/>
          <path id="Path_1459" data-name="Path 1459" d="M245.313,81.059l178.146-.439a6.889,6.889,0,0,1,6.878,6.9l.813,335.343a6.89,6.89,0,0,1-6.844,6.935l-178.146.439a6.889,6.889,0,0,1-6.878-6.9l-.813-335.343A6.89,6.89,0,0,1,245.313,81.059Z" transform="translate(-118.516 -39.733)" fill="#fff"/>
          <path id="_x39_f21819d-df43-48b3-835e-9020276cbed3_1_" d="M430.512,186.458l-.191-81.211a7.319,7.319,0,0,0-7.3-7.328L387.369,98a15.6,15.6,0,0,1-15.3,13.379l-66.267.162a15.593,15.593,0,0,1-15.362-13.3l-35.105.086a7.319,7.319,0,0,0-7.269,7.364l.2,81.318" transform="translate(-123.288 -48.258)" fill="#fafafa"/>
          <path id="c36a71a1-8927-4a8e-aa0b-340c78108d04_1_" d="M248.46,272.5l.568,235.656a7.318,7.318,0,0,0,7.3,7.328l167.673-.411a7.319,7.319,0,0,0,7.269-7.364L430.7,271.379" transform="translate(-123.482 -133.747)" fill="#fafafa"/>
          <rect id="Rectangle_114" data-name="Rectangle 114" width="35.623" height="35.917" transform="translate(141.094 83.447)" fill="#e0e0e0"/>
          <g id="Group_402" data-name="Group 402" transform="translate(98.776 149.2)" opacity="0.5">
            <rect id="Rectangle_115" data-name="Rectangle 115" width="235.223" height="80.674" fill="url(#linear-gradient-3)"/>
          </g>
          <rect id="Rectangle_116" data-name="Rectangle 116" width="229.624" height="74.593" transform="translate(101.578 152.517)" fill="#fff"/>
          <g transform="matrix(1, 0, 0, 1, -85.49, 0)" filter="url(#Rectangle_117)">
            <rect id="Rectangle_117-2" data-name="Rectangle 117" width="89.33" height="7.181" rx="3.591" transform="translate(278.65 180.14)" fill="#8472fc"/>
          </g>
          <g transform="matrix(1, 0, 0, 1, -85.49, 0)" filter="url(#Rectangle_118)">
            <rect id="Rectangle_118-2" data-name="Rectangle 118" width="89.33" height="7.181" rx="3.591" transform="translate(278.65 194.51)" fill="#8472fc"/>
          </g>
          <rect id="Rectangle_119" data-name="Rectangle 119" width="89.33" height="7.181" transform="translate(193.156 259.71)" fill="#e0e0e0"/>
          <rect id="Rectangle_120" data-name="Rectangle 120" width="89.33" height="7.181" transform="translate(193.156 274.072)" fill="#eee"/>
          <g transform="matrix(1, 0, 0, 1, -85.49, 0)" filter="url(#Rectangle_121)">
            <rect id="Rectangle_121-2" data-name="Rectangle 121" width="40.004" height="12.709" rx="6.355" transform="translate(303.31 112.18)" fill="#8472fc"/>
          </g>
          <g transform="matrix(1, 0, 0, 1, -85.49, 0)" filter="url(#Ellipse_15)">
            <ellipse id="Ellipse_15-2" data-name="Ellipse 15" cx="16.871" cy="17.091" rx="16.871" ry="17.091" transform="translate(217.51 170.86)" fill="#8472fc"/>
          </g>
          <ellipse id="Ellipse_20" data-name="Ellipse 20" cx="16.871" cy="17.091" rx="16.871" ry="17.091" transform="translate(142.976 250.982)" fill="#e0e0e0"/>
          <ellipse id="Ellipse_21" data-name="Ellipse 21" cx="16.871" cy="17.091" rx="16.871" ry="17.091" transform="translate(142.976 316.734)" fill="#e0e0e0"/>
          <rect id="Rectangle_122" data-name="Rectangle 122" width="89.33" height="7.181" transform="translate(193.156 323.252)" fill="#e0e0e0"/>
          <rect id="Rectangle_123" data-name="Rectangle 123" width="89.33" height="7.181" transform="translate(193.156 337.614)" fill="#eee"/>
          <rect id="Rectangle_124" data-name="Rectangle 124" width="89.33" height="7.181" transform="translate(193.156 83.447)" fill="#e0e0e0"/>
          <rect id="Rectangle_125" data-name="Rectangle 125" width="89.33" height="7.181" transform="translate(193.156 97.815)" fill="#e0e0e0"/>
          <path id="Path_1467" data-name="Path 1467" d="M384.251,106.615,424.99,106a1.01,1.01,0,0,1,1.021,1l.01.664a1.01,1.01,0,0,1-.991,1.029l-40.739.617a1.01,1.01,0,0,1-1.021-1l-.01-.664A1.011,1.011,0,0,1,384.251,106.615Z" transform="translate(-190.476 -52.241)" fill="#dbdbdb"/>
          <ellipse id="Ellipse_22" data-name="Ellipse 22" cx="1.605" cy="1.618" rx="1.605" ry="1.618" transform="translate(243.018 53.068)" fill="#dbdbdb"/>
        </g>
      </g>
      <g id="woman" transform="translate(322.015 167.686)">
        <ellipse id="Ellipse_41" data-name="Ellipse 41" cx="52.842" cy="6.992" rx="52.842" ry="6.992" transform="translate(53.045 242.645)" fill="#f2f2f2"/>
        <g id="Group_423" data-name="Group 423">
          <path id="Path_1553" data-name="Path 1553" d="M231.489,46.559h.194A1.137,1.137,0,0,1,232.82,47.7v9.66a1.137,1.137,0,0,1-1.137,1.137h-.194a1.137,1.137,0,0,1-1.137-1.137V47.7A1.137,1.137,0,0,1,231.489,46.559Z" transform="translate(-116.005 -23.447)" fill="#3a3768"/>
          <path id="Path_1554" data-name="Path 1554" d="M231.309,90.579h.506a1.137,1.137,0,0,1,1.137,1.137v18.5a1.137,1.137,0,0,1-1.137,1.137h-.506a1.137,1.137,0,0,1-1.137-1.137v-18.5A1.137,1.137,0,0,1,231.309,90.579Z" transform="translate(-115.915 -45.616)" fill="#3a3768"/>
          <path id="Path_1555" data-name="Path 1555" d="M231.4,147.059h.372a1.137,1.137,0,0,1,1.137,1.137v18.675a1.137,1.137,0,0,1-1.137,1.137H231.4a1.137,1.137,0,0,1-1.137-1.137V148.2A1.137,1.137,0,0,1,231.4,147.059Z" transform="translate(-115.96 -74.059)" fill="#3a3768"/>
          <path id="Path_1556" data-name="Path 1556" d="M164.213,258.649a.456.456,0,0,0,.541.07A1.911,1.911,0,0,1,164.213,258.649Z" transform="translate(-82.697 -130.255)" fill="url(#linear-gradient-4)"/>
          <path id="Path_1557" data-name="Path 1557" d="M141,29.61c-1.047-.308-2.537-.809-4.339-1.44a23.247,23.247,0,0,0,4.021-8.206l-.154.06c.05-.184.1-.362.154-.546-3.445,1.42-7.262-.993-9.69-4.075s-4.08-6.92-6.736-9.764a31.123,31.123,0,0,0-3.569-3.112A4.743,4.743,0,0,0,118.1,1.241c-1.549-.045-2.765,1.489-4.259,1.951a5.768,5.768,0,0,1-2.978-.109C107,2.184,103.283.531,99.366.1a13.279,13.279,0,0,0-6.235.71c-1.986.764-2.879,2.278-4.468,3.475-1.723,1.3-5.153,1.271-7.183,1.489a51.437,51.437,0,0,1-7.416.313,16.818,16.818,0,0,0-4.269.159c-2.949.655-5.316,3.028-7.525,5.311a3.971,3.971,0,0,0-1.246,1.986,2.636,2.636,0,0,0,0,.655,4.264,4.264,0,0,0,.3,1.737,23.038,23.038,0,0,0,2.829,5.788,17.351,17.351,0,0,1,2.482,4.09,8.057,8.057,0,0,1,.382,2.358,18.083,18.083,0,0,1-.263,2.537,32.264,32.264,0,0,1-1.911,6.746,12.97,12.97,0,0,0-1.117,3.559,6.423,6.423,0,0,0,0,.755c-.149,3.887,3.728,6.691,4.468,10.558a7.046,7.046,0,0,1,.109.968A6.6,6.6,0,0,1,64.866,59c.174.069.352.129.531.194a5.584,5.584,0,0,1-.531.3c.362.139.735.258,1.112.367A26.121,26.121,0,0,0,60.314,66.9C53.633,79.573,8.093,104.433,8.093,104.433s.258.144.675.392c-.169.1-.347.223-.546.357C4.28,107.843-4.973,115.607,3.392,125.4c0,0,6.528-10.449,11.1-14.892.208-.2.407-.382.6-.556a1.355,1.355,0,0,1,.179,1.072L45.219,93.958S55.861,86.4,58.83,84.7a24.437,24.437,0,0,1,6.746-2.934l-.347.154a13.477,13.477,0,0,1,3.435-.5c5.3.084,11.04,4.021,12.936,19.613,2.537,20.879,1.36,24.641.546,25.158a1.432,1.432,0,0,1-.3-.055.448.448,0,0,0,.079.06,1.441,1.441,0,0,1-.328-.06.457.457,0,0,0,.437.109.427.427,0,0,0,.333-.04h.4c0,.189-.03.387-.045.581-.04,0-.238.114,0,.129h0c-.06,1.176-.055,2.482,0,3.8-2.636.149-5.267.308-7.575.452l.208-1.107.094-.5c2.02-.164,3.941-.764,4.165-2.432.5-3.654-4.468-5.6-8.662-5.848s-29.451,1.464-29.451,1.464-3.788,4.964,8.22,6.508c.357.189.73.4,1.107.616A133.11,133.11,0,0,1,64.97,140.059l.427.343-1.37,1.107c7.446,1.708,14.6,30.469,18.56,43.629s12.623,12.673,19.8,10.727c6.726-1.832,7.585-21.633,7.664-24.12v-.253l11.958,14.947.908,1.137c.352.184.695.357,1.033.521,9.059,4.373,19.067-4.006,16.217-13.537-2.874-9.63-7.342-23.862-10.32-29.878-2.482-5.038-5.714-13.4-7.669-18.655a6.873,6.873,0,0,0,.74-.357s-.045-.233-.124-.665l.124-.065s-2.879-15.165-3.038-25.932v-.918c2.164-.5,3.534-.695,3.534-.695l.04-.467-.253.055,1.2-13.969s4.418-9.526,1.037-13.5a8.439,8.439,0,0,1-1.986-4.125c-.566-3.654,0-9.734,7.878-14.793,12.127-7.8,16.833-14.138,16.833-14.138S148.425,31.8,141,29.61ZM116.914,39.3V32.847c2.249-.109,4.547.154,6.806,0a17.16,17.16,0,0,0,3.286-.556l.546.382A59.925,59.925,0,0,1,116.914,39.3ZM82.533,140.471c.889.625,1.782,1.276,2.661,1.926.546,3.182,1.028,5.431,1.062,5.584A44.8,44.8,0,0,0,82.533,140.471Z" transform="translate(0 0)" fill="url(#linear-gradient-5)"/>
          <path id="Path_1558" data-name="Path 1558" d="M176.672,274.769l-.536,2.909-.412,2.224-.75,4.071-7.267,5.088s-.655-.561-1.737-1.444a126.641,126.641,0,0,0-13.835-10.127,15.483,15.483,0,0,0-3.8-1.752Z" transform="translate(-74.7 -138.374)" fill="#ffbdc6"/>
          <path id="Path_1559" data-name="Path 1559" d="M176.672,274.769l-.536,2.909a22.7,22.7,0,0,1-4.8-.248l-16.957.243c-.8-.05-1.549-.109-2.249-.184a15.486,15.486,0,0,0-3.8-1.752Z" transform="translate(-74.7 -138.374)" opacity="0.1"/>
          <path id="Path_1560" data-name="Path 1560" d="M165.376,271.007s8.474,1.454,8.97-2.164-4.363-5.575-8.479-5.818-28.826,1.454-28.826,1.454-4.358,5.813,11.382,6.786Z" transform="translate(-68.735 -132.447)" fill="#474463"/>
          <path id="Path_1561" data-name="Path 1561" d="M176.672,274.769l-.536,2.909-.412,2.224-.75,4.071-7.267,5.088s-.655-.561-1.737-1.444a126.641,126.641,0,0,0-13.835-10.127,15.483,15.483,0,0,0-3.8-1.752Z" transform="translate(-74.7 -138.374)" fill="#ffdad3" opacity="0.1"/>
          <path id="Path_1562" data-name="Path 1562" d="M176.672,274.769l-.536,2.909a22.7,22.7,0,0,1-4.8-.248l-16.957.243c-.8-.05-1.549-.109-2.249-.184a15.486,15.486,0,0,0-3.8-1.752Z" transform="translate(-74.7 -138.374)" opacity="0.1"/>
          <path id="Path_1563" data-name="Path 1563" d="M165.371,270.972s8.478,1.449,8.965-2.184-4.363-5.569-8.479-5.813-28.826,1.454-28.826,1.454-4.358,5.813,11.382,6.781Z" transform="translate(-68.73 -132.422)" opacity="0.1"/>
          <rect id="Rectangle_179" data-name="Rectangle 179" width="44.329" height="52.564" transform="translate(70.843 19.146)" fill="#474463"/>
          <rect id="Rectangle_180" data-name="Rectangle 180" width="44.329" height="52.564" transform="translate(70.843 19.384)" opacity="0.1"/>
          <path id="Path_1564" data-name="Path 1564" d="M20.925,215.408a7.1,7.1,0,0,0-2.7,1.911c-4.468,4.423-10.866,14.8-10.866,14.8-8.181-9.744.874-17.444,4.731-20.089.938-.64,1.569-.993,1.569-.993Z" transform="translate(-2.036 -106.279)" fill="#ffdad3"/>
          <path id="Path_1565" data-name="Path 1565" d="M180.607,71.989s2.179,15.259,9.69,18.893-9.69,10.424-9.69,10.424L157.113,92.58s13.323-4.363,10.658-17.2Z" transform="translate(-79.122 -36.254)" fill="#ffdad3"/>
          <path id="Path_1566" data-name="Path 1566" d="M124.922,256.929l-.531,2.9-.432,2.234-.75,4.07-7.267,5.083s-.655-.556-1.737-1.44a126.242,126.242,0,0,0-13.84-10.127,15.384,15.384,0,0,0-3.8-1.752Z" transform="translate(-48.629 -129.389)" fill="#ffdad3"/>
          <path id="Path_1567" data-name="Path 1567" d="M124.942,256.929l-.531,2.9a22.706,22.706,0,0,1-4.8-.248l-16.957.243c-.8-.05-1.554-.109-2.254-.184a15.392,15.392,0,0,0-3.8-1.752Z" transform="translate(-48.649 -129.389)" opacity="0.1"/>
          <path id="Path_1568" data-name="Path 1568" d="M113.649,253.182s8.479,1.45,8.96-2.179-4.358-5.575-8.479-5.818S85.31,246.64,85.31,246.64s-4.363,5.813,11.383,6.786Z" transform="translate(-42.682 -123.463)" fill="#474463"/>
          <path id="Path_1569" data-name="Path 1569" d="M141.857,267.1l-.749,4.07-7.267,5.083s-.655-.556-1.737-1.44l9.61-7.883Z" transform="translate(-66.527 -134.425)" opacity="0.1"/>
          <path id="Path_1570" data-name="Path 1570" d="M188.953,311.633c-.333-.164-.665-.333-.993-.5l-.894-1.127-11.72-14.862v.258c-.079,2.482-.923,22.149-7.506,23.966-7.024,1.936-15.5,2.422-19.36-10.658s-10.921-41.663-18.168-43.361l10.782-8.841s7.138,8.349,10.047,16.342c-.109-.5-5.039-23.529-.993-27.6h35.369s5.46,15.552,9.2,23.256c2.914,5.982,7.287,20.124,10.1,29.695A11.361,11.361,0,0,1,188.953,311.633Z" transform="translate(-65.625 -123.507)" fill="#474463"/>
          <path id="Path_1571" data-name="Path 1571" d="M206.393,219.593c-5.46,3.232-29.432,1.916-37.23,1.39l-2.125-.154c-.228,0,.035-.129.035-.129l.218-2.2,5.813-14.773,31.124-18.049a27.1,27.1,0,0,0-.789,8.141C203.583,204.523,206.393,219.593,206.393,219.593Z" transform="translate(-84.073 -93.508)" opacity="0.1"/>
          <path id="Path_1572" data-name="Path 1572" d="M206.13,218.139c-5.46,3.232-29.432,1.916-37.23,1.39l-2.125-.149-.352-.03.387-.1,1.916-.5,4.115-16.471,31.124-18.044a27.1,27.1,0,0,0-.789,8.141C203.32,203.073,206.13,218.139,206.13,218.139Z" transform="translate(-83.81 -92.783)" fill="#f2f1f2"/>
          <path id="Path_1573" data-name="Path 1573" d="M203.494,192.37c-6.329,1.459-20.258,5.743-25.609,16.083-3.569,6.885-6.572,9.839-8.667,11.075l-2.125-.149a1.277,1.277,0,0,0,.035-.129l1.916-.5,4.115-16.471,31.124-18.044A27.152,27.152,0,0,0,203.494,192.37Z" transform="translate(-84.148 -92.783)" opacity="0.1"/>
          <path id="Path_1574" data-name="Path 1574" d="M21.821,211.059l7.267,4.358a7.1,7.1,0,0,0-2.7,1.911c-.606-1.767-4.408-4.234-6.136-5.287C21.191,211.412,21.821,211.059,21.821,211.059Z" transform="translate(-10.199 -106.289)" opacity="0.1"/>
          <path id="Path_1575" data-name="Path 1575" d="M163.979,255.529a.432.432,0,0,1-.5-.07A1.726,1.726,0,0,0,163.979,255.529Z" transform="translate(-82.33 -128.649)" opacity="0.1"/>
          <path id="Path_1576" data-name="Path 1576" d="M108.143,70.516S101.6,71.24,97,66.4c0,0-19.36,5.575-25.917,18.168s-51.129,37.3-51.129,37.3,7.754,4.358,7.024,6.538l29.312-16.957s10.424-7.506,13.318-9.2,18.9-12.112,22.288,16.227,0,24.949,0,24.949,4.845,1.7,11.869-11.869,28.821-16.714,28.821-16.714l1.211-14.286s4.324-9.471.993-13.4a8.439,8.439,0,0,1-1.941-4.1c-.551-3.629,0-9.675,7.714-14.7C152.432,60.6,157.034,54.3,157.034,54.3s.243-4.607-7.024-6.786-36.818-14.048-36.818-14.048l-.993,4.12,23.316,16.456s-11.626,9.432-20.849,9.2C114.666,63.248,116.379,70.272,108.143,70.516Z" transform="translate(-10.048 -16.855)" fill="#67647e"/>
          <path id="Path_1577" data-name="Path 1577" d="M191.973,79.366a47.292,47.292,0,0,1-1.34-5.917L177.8,76.84a14.073,14.073,0,0,1-.293,7.406,13.8,13.8,0,0,0,14.47-4.88Z" transform="translate(-89.39 -36.989)" opacity="0.1"/>
          <ellipse id="Ellipse_25" data-name="Ellipse 25" cx="13.805" cy="13.805" rx="13.805" ry="13.805" transform="translate(78.115 19.389)" fill="#ffdad3"/>
          <path id="Path_1578" data-name="Path 1578" d="M161.844,3.5c3.832.432,7.471,2.08,11.243,2.978A5.58,5.58,0,0,0,176,6.6c1.464-.457,2.656-1.986,4.175-1.941A4.44,4.44,0,0,1,182.7,5.932a30.656,30.656,0,0,1,3.475,3.1c2.6,2.825,4.214,6.627,6.587,9.7s6.116,5.46,9.486,4.051c-2.293,8.935-9.8,15.741-17.93,16.3-3.241.218-6.562-.457-9.7.5a8.568,8.568,0,0,1-2.447.6c-1.807,0-3.261-1.658-4.388-3.271-2.641-3.793-4.731-8.1-7.7-11.561a6.351,6.351,0,0,0-3.529-2.437,6.53,6.53,0,0,0-3.9,1.092,18.4,18.4,0,0,0-5.709,3.971,7.9,7.9,0,0,0-1.926,6.95c.352,1.32,1.157,2.512,1.171,3.892.03,2.2-1.916,3.812-2.3,5.957a22.366,22.366,0,0,0-.094,2.71c-.169,2.939-2.09,5.346-4.1,7.193a5.168,5.168,0,0,0-1.876,2.6c-.154.755,0,1.559-.1,2.323-.293,1.906-2.194,2.874-3.877,3.127a11.283,11.283,0,0,1-5.818-.69,6.715,6.715,0,0,0,3.256-7.118c-.75-3.931-4.7-6.751-4.363-10.757a12.513,12.513,0,0,1,1.092-3.539,32.3,32.3,0,0,0,1.867-6.7,11.3,11.3,0,0,0-.114-5.346,16.538,16.538,0,0,0-2.413-4.066,23.068,23.068,0,0,1-2.795-5.728,3.971,3.971,0,0,1-.268-1.891,3.892,3.892,0,0,1,1.216-1.986c2.159-2.269,4.468-4.631,7.362-5.277a16.347,16.347,0,0,1,4.18-.164,48.648,48.648,0,0,0,7.262-.308c1.986-.233,5.341-.2,7.024-1.489,1.569-1.206,2.452-2.71,4.383-3.475A12.817,12.817,0,0,1,161.844,3.5Z" transform="translate(-62.583 -1.708)" opacity="0.1"/>
          <path id="Path_1579" data-name="Path 1579" d="M215.423,290.839s7.992,15.746,5.57,20.586" transform="translate(-108.487 -146.466)" opacity="0.1"/>
          <path id="Path_1580" data-name="Path 1580" d="M232.64,357.3l-11.705-14.842v.258s-.675-4.805,1.554-3.192c4.885,3.534,12.7,9.327,12.867,10.325S233.772,354.832,232.64,357.3Z" transform="translate(-111.214 -170.817)" opacity="0.1"/>
          <g id="Group_422" data-name="Group 422" transform="translate(10.168 16.594)" opacity="0.1">
            <path id="Path_1581" data-name="Path 1581" d="M209.037,93.263s.993,4.09-2.2,6.136c4.914-.839,5.133-4.666,4.964-6.329A15.594,15.594,0,0,1,209.037,93.263Z" transform="translate(-114.328 -63.464)"/>
            <path id="Path_1582" data-name="Path 1582" d="M23.148,154.7S67.715,130,74.278,117.4c4.691-9.039,16-14.46,22.005-16.8-4.378,1.489-19.131,7.1-24.671,17.771-6.538,12.594-51.129,37.3-51.129,37.3Z" transform="translate(-20.483 -67.256)"/>
            <path id="Path_1583" data-name="Path 1583" d="M217.487,61.3c7.585-2.358,14.833-8.245,14.833-8.245L209.048,36.576l.531-2.254-2.229-.894-.968,4.12L229.639,54.02A56.192,56.192,0,0,1,217.487,61.3Z" transform="translate(-114.102 -33.429)"/>
            <path id="Path_1584" data-name="Path 1584" d="M229.023,199.219a57.845,57.845,0,0,1,9.114-2.3l.04-.467A61.793,61.793,0,0,0,229.023,199.219Z" transform="translate(-125.503 -115.526)"/>
            <path id="Path_1585" data-name="Path 1585" d="M152.32,208h-.213a.437.437,0,0,1-.5-.07,1.743,1.743,0,0,0,.5.07c.794-.462,1.986-4.081-.5-25.019-2.671-22.338-13.179-20.6-18.928-18.024,5.877-1.618,13.964-.218,16.262,18.992,2.507,20.938,1.311,24.557.5,25.019A5.367,5.367,0,0,0,152.32,208Z" transform="translate(-76.986 -98.929)"/>
            <path id="Path_1586" data-name="Path 1586" d="M165.939,255.039a1.741,1.741,0,0,1-.5-.069A.437.437,0,0,0,165.939,255.039Z" transform="translate(-93.484 -144.997)"/>
          </g>
          <path id="Path_1587" data-name="Path 1587" d="M161.845,2.533c3.832.437,7.471,2.08,11.244,2.978A5.58,5.58,0,0,0,176,5.621c1.464-.452,2.656-1.986,4.175-1.941A4.629,4.629,0,0,1,182.7,4.956a31.14,31.14,0,0,1,3.475,3.1c2.6,2.825,4.214,6.627,6.587,9.7s6.116,5.46,9.486,4.051c-2.293,8.935-9.8,15.741-17.93,16.3-3.242.223-6.563-.452-9.7.5a8.4,8.4,0,0,1-2.447.6c-1.807,0-3.261-1.658-4.388-3.271-2.641-3.793-4.731-8.1-7.7-11.556a6.336,6.336,0,0,0-3.529-2.442,6.535,6.535,0,0,0-3.9,1.1,18.312,18.312,0,0,0-5.709,3.971,7.9,7.9,0,0,0-1.926,6.95c.353,1.32,1.157,2.512,1.172,3.892.03,2.2-1.916,3.812-2.3,5.957a22.341,22.341,0,0,0-.094,2.71c-.169,2.939-2.09,5.341-4.1,7.193a5.155,5.155,0,0,0-1.876,2.6c-.154.759,0,1.559-.1,2.328-.293,1.906-2.194,2.874-3.877,3.122a11.184,11.184,0,0,1-5.818-.69,6.707,6.707,0,0,0,3.256-7.113c-.75-3.931-4.7-6.756-4.363-10.757a12.465,12.465,0,0,1,1.092-3.539,32.425,32.425,0,0,0,1.866-6.706,11.3,11.3,0,0,0-.114-5.346,16.626,16.626,0,0,0-2.412-4.066A23.115,23.115,0,0,1,124.56,17.8a4.025,4.025,0,0,1-.268-1.9,3.911,3.911,0,0,1,1.216-1.961c2.159-2.269,4.468-4.626,7.362-5.277a16.57,16.57,0,0,1,4.18-.159,49.333,49.333,0,0,0,7.262-.308c1.986-.233,5.341-.2,7.024-1.489,1.569-1.2,2.452-2.71,4.383-3.475A12.906,12.906,0,0,1,161.845,2.533Z" transform="translate(-62.583 -1.223)" fill="#474463"/>
        </g>
      </g>
      <g id="man" transform="translate(0 157.684)">
        <ellipse id="Ellipse_42" data-name="Ellipse 42" cx="52.842" cy="6.992" rx="52.842" ry="6.992" transform="translate(2.259 218.521)" fill="#f2f2f2"/>
        <g id="Group_425" data-name="Group 425">
          <path id="Path_1588" data-name="Path 1588" d="M.817,82.418a24.308,24.308,0,0,1,0-12.375V64.205S-1.285,52.793,8.1,45.471l6.222-5.488s3.489-3,4.5-3.185a4.584,4.584,0,0,1,.573-.086l.183-.109a18.727,18.727,0,0,0,1.364-2.865,2.653,2.653,0,0,1-2.217-.756,2.865,2.865,0,0,1-.521-.877h0c-.361-.808-.424-1.787-.728-2.647a6.3,6.3,0,0,0-1.146-1.9c.063.1.132.2.189.309-.882-1.1-2.034-2.04-2.865-3.2a7.171,7.171,0,0,1-.453-.716c.034.052.08.1.12.149A16.287,16.287,0,0,1,11.5,17.885a5.591,5.591,0,0,1-.034-2.223,8.1,8.1,0,0,1,.619-1.409c1.352-2.79,1.329-6.3,3.489-8.531,1.627-1.667,4.091-2.177,6.411-2.464s4.761-.453,6.755-1.667a7.127,7.127,0,0,1,1.828-1,1.5,1.5,0,0,1,1.793.665,1.18,1.18,0,0,0,.241.487.779.779,0,0,0,.688.04L36.374.956l-.034.155h.08L36.3,1.6a.264.264,0,0,0-.292.166l.5.768A7.74,7.74,0,0,0,39.3,1.959a.647.647,0,0,1,0,.149h.046c.057.871-.934,1.438-1.238,2.257a1.719,1.719,0,0,0,0,1.106,2.424,2.424,0,0,0,.573.882c1.094,1.083,2.5.871,3.758,1.553a.814.814,0,0,1,.458.51.373.373,0,0,1,.04.281.665.665,0,0,1-.258.321,5.73,5.73,0,0,1-1.2.745c.126.115.246.229.361.349a13.807,13.807,0,0,1-4.773,22.527c-.046.241-.08.487-.115.745v.074l-.034.332,4.159,1.77a3.312,3.312,0,0,0,2.979-1.919c.968-2,4.389,0,4.389,0s10.433-.779,14.323,1.146c0,0,6.228-2.612,7.1-2.79s2.189-.871,2.8-.693,1.4-1.146,1.845-1.048.613-.871,2.017-1.22,1.931.092,3.506-1.478S94.429,19.8,94.429,19.8l5.752-4.732,6.136-4.881.109.2c.04-.143.08-.292.12-.453a58.777,58.777,0,0,1,2.292-7.156c.4-.945.573-2.137,1.106-1.507.327.378.882-.453,1.719-1.014a1.449,1.449,0,0,1,2.16.63h0c4.778,7.494,6.491,8.021,3.724,10.776-2.469,2.446-4.108,4.583-6.119,5.259l-.241.074a.258.258,0,0,0,.132,0L99.654,30.942s-8.416,7.322-14.209,9.671S80.1,43.666,80.1,43.666,62.557,52.552,59.841,52.38s-2.194,18.213-1.054,21.2,2.979,24.4,2.979,24.4,1.759,4.532-.086,7.666c0,0-.407,6-.04,7.448,1.6,2.463,3.879,6.646,4.251,10.948a6.365,6.365,0,0,0,.069.665,1.547,1.547,0,0,0,.412.338l-.39-.115a22.055,22.055,0,0,0,1.146,5.259,21.375,21.375,0,0,1,1.45,7.482v13.841l1.146,8.594s1.4,6.5,0,8.021a3.712,3.712,0,0,0-.768,2.67,4.973,4.973,0,0,1-.894,3.117,2.332,2.332,0,0,0-.573,2c.464,1.507-.688,17.542-.688,17.542s.338,4.417.8,4.652-.8,5.11-.8,5.11,4.738,3.953,3.529,6.044l-1.209,1.856.321.315.195.2a1.868,1.868,0,0,1,1.209-.229,46.175,46.175,0,0,0,4.767,4.245c2.137,1.541,7.952,3.775,7.952,3.775l4.583.372h.086s2.194-.206.963,3.191-12.244,2.355-12.244,2.355l-6.428-1.014s-11.459.057-14.742-.67c-1.369-.3-1.719-1.037-1.6-1.776h0l.034-.034a4.583,4.583,0,0,1,.94-1.919.73.73,0,0,1,.08-.1l-.206-2.349c-4.864-2.8,1.375-8.313,1.375-8.313a57.7,57.7,0,0,0-3.231-6.153C52.078,201.5,52.078,179.3,52.078,179.3s-.573-8.021.934-9.877a3.34,3.34,0,0,0-1.639-3.019c-1.083-.739-4.354-10.92-6.921-19.37l-1.616,9.957s.349,4.767-.7,6.159a2.372,2.372,0,0,0-.435,1.856,8.364,8.364,0,0,1-.235,4.01,2.653,2.653,0,0,1-.854,1.432c-.934.464-.991,2.12-1.341,2.469s-2.515-.493-2.63.785a28.931,28.931,0,0,0,0,3.369l-.7,20.682s1.146,1.719,1.4,6.3a8.107,8.107,0,0,0,.842,3.7,1.9,1.9,0,0,1-.172,2.223l-.2.235.865.665a1.908,1.908,0,0,1,.539,2.355,1.85,1.85,0,0,1,.533,2.005,1.4,1.4,0,0,1-.149.327,3.254,3.254,0,0,1,1.747.865,14.323,14.323,0,0,0,3.088,3.105,59.412,59.412,0,0,1,4.922,4.217,7.071,7.071,0,0,0,2.865,2.292,4.728,4.728,0,0,0,.865.258c2.292.47,1.576,2.865-.292,3.26s-8.067,2.292-12.891,1.186a4.552,4.552,0,0,1-3.535-.493,51.933,51.933,0,0,0-6.8-2.372s-2.63,0-2.985-1.043a4.09,4.09,0,0,1-.149-1.02l-.074-.074.069-.063a13.9,13.9,0,0,1,.178-2.332c.069-.4.143-.756.212-1.043.223-.871.642-2,.819-2.475a.879.879,0,0,1-.08-.12c-1-1.719.665-5.8.665-5.8a11.113,11.113,0,0,0-1.977-2.343c-.934-.7-3.392-18.826-3.392-18.826s.12-4.646-1.146-6.737,1.753-14.752,1.753-14.752,1.289-2.9.819-3.953.47-4.881.47-4.881v-4.583a5.064,5.064,0,0,1,.269-1.6c.361-1.077.894-3.145.315-4.629-.819-2.091-2.687-14.987-2.687-14.987s1.461-5.689-.682-10.221a8.9,8.9,0,0,0-.573-1.048c-1.587-2.492-1.112-6.921-.327-10.49.115-.573.246-1.089.378-1.587.052-.218.109-.424.166-.63l-.252-.1a7.421,7.421,0,0,0-.08-.917,6.44,6.44,0,0,1-4.217-2.916s-5.351-6.016-10.084-8.542-5.088-6.187-5.088-6.187c.7-1.22-1.255-6.187-1.255-6.187ZM19.466,36.8ZM16.252,90.439l5.065,5.872v-.034c1.318-1.833-1.226-5.93-1.226-5.93l-4.211-9.4a5.317,5.317,0,0,0,.573,2.767c1.146,1.57-2.108,4.188-2.108,4.188C16.08,87.912,16.252,90.439,16.252,90.439Z" transform="translate(0 0)" fill="url(#linear-gradient-6)"/>
          <path id="Path_1589" data-name="Path 1589" d="M2.26,14.9l2.767,5.368A10.887,10.887,0,0,0,7.6,19.73a9.74,9.74,0,0,0,6.044-5.225c2.469-5.454-1.616-8.977-3.518-10.02s-3.672-2.229-5.1,1.192a59.152,59.152,0,0,0-2.24,7.11C2.455,14.041,2.26,14.9,2.26,14.9Z" transform="translate(103.163 -1.455)" fill="#ffdad3"/>
          <path id="Path_1590" data-name="Path 1590" d="M138.8,59.385l4.417,6.577s20.872,9.957,16.884-1.719c-1.753-5.156-1.959-8.92-1.644-11.527v-.074a9.272,9.272,0,0,1,1.639-4.675s-20.345-10.415-17.314-3.294a9.807,9.807,0,0,1,.716,4.686,15.973,15.973,0,0,1-2.189,6.5A21.609,21.609,0,0,1,138.8,59.385Z" transform="translate(-121.261 -18.016)" fill="#ffdad3"/>
          <path id="Path_1591" data-name="Path 1591" d="M87.613,253.732s-3,12.6-1.719,14.661,1.146,6.7,1.146,6.7,2.423,18.012,3.346,18.7a11.011,11.011,0,0,1,1.965,2.292s-1.65,4.079-.659,5.764a1.4,1.4,0,0,0,.659.573c1.547.653,7.265-2.246,10.519-4.01a1.856,1.856,0,0,0,.332-3.025,1.89,1.89,0,0,0-.527-2.337l-.859-.664.2-.235a1.9,1.9,0,0,0,.172-2.211,8.024,8.024,0,0,1-.831-3.672c-.235-4.5-1.386-6.233-1.386-6.233l.693-20.556a28.516,28.516,0,0,1,0-3.346c.115-1.266,2.252-.43,2.6-.779s.407-1.988,1.329-2.452a2.63,2.63,0,0,0,.837-1.427,8.244,8.244,0,0,0,.235-4.01,2.366,2.366,0,0,1,.43-1.845c1.037-1.386.693-6.113.693-6.113l1.593-9.9c2.538,8.4,5.764,18.516,6.835,19.25a3.329,3.329,0,0,1,1.616,3c-1.5,1.851-.922,9.82-.922,9.82s0,22.045,1.083,23.552a57,57,0,0,1,3.18,6.142s-6.188,5.506-1.318,8.284h.052c4.967,2.773,15.24-4.961,15.24-4.961l-1.071-1.071-.315-.315,1.215-1.81c1.192-2.08-3.483-6-3.483-6s1.249-4.853.791-5.082-.791-4.618-.791-4.618,1.146-15.933.676-17.434a2.349,2.349,0,0,1,.573-1.988,4.944,4.944,0,0,0,.882-3.094,3.678,3.678,0,0,1,.762-2.653c1.386-1.5,0-7.963,0-7.963l-1.146-8.548V220.532a21.637,21.637,0,0,0-1.45-7.66,22.917,22.917,0,0,1-1.26-6.147c-.378-4.377-2.733-8.628-4.314-11.051-.837-1.283-1.461-2.051-1.461-2.051L86.8,192.179s-.573,1.644-1.192,3.93c-.126.5-.252,1.026-.372,1.576-.773,3.552-1.238,7.952.327,10.427a9.685,9.685,0,0,1,.573,1.043c2.114,4.5.67,10.158.67,10.158s1.845,12.81,2.653,14.9c.573,1.472.046,3.529-.315,4.583a5.214,5.214,0,0,0-.258,1.6v4.566s-.928,3.81-.464,4.853S87.613,253.732,87.613,253.732Z" transform="translate(-63.718 -82.078)" fill="#444053"/>
          <path id="Path_1592" data-name="Path 1592" d="M163.034,212.856a8.768,8.768,0,0,1,.573,1.037l2.08-.115c-.2-1.071,1.215-11.114,1.215-11.114l-4.188-.235C161.94,205.975,161.47,210.375,163.034,212.856Z" transform="translate(-140.84 -86.456)" opacity="0.1"/>
          <path id="Path_1593" data-name="Path 1593" d="M163.636,212.246a9.685,9.685,0,0,1,.573,1.043l2.08-.12c-.2-1.066,1.215-11.114,1.215-11.114l-4.188-.235C162.536,205.371,162.072,209.771,163.636,212.246Z" transform="translate(-141.786 -86.195)" fill="#444053"/>
          <path id="Path_1594" data-name="Path 1594" d="M163.636,212.246a9.685,9.685,0,0,1,.573,1.043l2.08-.12c-.2-1.066,1.215-11.114,1.215-11.114l-4.188-.235C162.536,205.371,162.072,209.771,163.636,212.246Z" transform="translate(-141.786 -86.195)" opacity="0.05"/>
          <path id="Path_1595" data-name="Path 1595" d="M137.646,380.28a1.4,1.4,0,0,0,.659.573c1.547.653,7.265-2.246,10.519-4.01a1.874,1.874,0,0,0,.865-1.031c-1.856-.338-3.071,1.719-3.071,1.719a2.739,2.739,0,0,0-3.775.865l-.035.057c-1.587,2.338-4.99,1.352-4.99,1.352Z" transform="translate(-109.677 -160.49)" opacity="0.1"/>
          <path id="Path_1596" data-name="Path 1596" d="M112.321,387.624c.344,1.043,2.945,1.043,2.945,1.043a55.442,55.442,0,0,1,6.726,2.366,4.6,4.6,0,0,0,3.489.493c4.761,1.094,10.886-.808,12.731-1.186s2.567-2.767.286-3.231a4.634,4.634,0,0,1-.854-.264,6.966,6.966,0,0,1-2.865-2.292,58.565,58.565,0,0,0-4.864-4.188,14.215,14.215,0,0,1-3.048-3.088c-2.716-2.395-4.646.894-4.646.894a2.739,2.739,0,0,0-3.774.869l-.036.059c-1.587,2.337-4.99,1.346-4.99,1.346s-.613,1.564-.9,2.687c-.069.286-.143.642-.212,1.043A9.465,9.465,0,0,0,112.321,387.624Z" transform="translate(-85.309 -160.759)" fill="#67647e"/>
          <ellipse id="Ellipse_27" data-name="Ellipse 27" cx="0.315" cy="0.315" rx="0.315" ry="0.315" transform="translate(34.638 218.936)" fill="#575988"/>
          <ellipse id="Ellipse_28" data-name="Ellipse 28" cx="0.315" cy="0.315" rx="0.315" ry="0.315" transform="translate(37.348 221.474)" fill="#575988"/>
          <ellipse id="Ellipse_29" data-name="Ellipse 29" cx="0.315" cy="0.315" rx="0.315" ry="0.315" transform="translate(40.103 223.754)" fill="#575988"/>
          <ellipse id="Ellipse_30" data-name="Ellipse 30" cx="0.315" cy="0.315" rx="0.315" ry="0.315" transform="translate(38.677 222.735)" fill="#575988"/>
          <ellipse id="Ellipse_31" data-name="Ellipse 31" cx="0.315" cy="0.315" rx="0.315" ry="0.315" transform="translate(35.932 220.128)" fill="#575988"/>
          <path id="Path_1597" data-name="Path 1597" d="M112.318,393.409c.344,1.043,2.945,1.043,2.945,1.043a55.439,55.439,0,0,1,6.726,2.366,4.6,4.6,0,0,0,3.489.493c4.761,1.094,10.886-.808,12.731-1.186s2.567-2.767.286-3.231a4.615,4.615,0,0,1-.854-.264,22.162,22.162,0,0,1-6.245,1.186c-4.7.2-8.428,0-8.428,0l-4.761-1.53a7.957,7.957,0,0,0-2.945-1.066,7.7,7.7,0,0,1-2.928-1.272A8.988,8.988,0,0,0,112.318,393.409Z" transform="translate(-85.306 -166.544)" fill="#dce6f2"/>
          <path id="Path_1598" data-name="Path 1598" d="M150.354,397.983a3.927,3.927,0,0,0,.791-.075l-.069-.338a5.042,5.042,0,0,1-2.865-.4c-.424-.166-.848-.367-1.26-.573a15.821,15.821,0,0,0-1.507-.653l-.47-.16c-.258-.092-.521-.178-.773-.286-.143-.057-.286-.126-.424-.195a4.877,4.877,0,0,0-1.066-.407,5.273,5.273,0,0,0-.573-.075,5.014,5.014,0,0,1-.527-.063,4.957,4.957,0,0,1-1-.372,4.836,4.836,0,0,0-1.077-.4l-.252-.04a1.231,1.231,0,0,1-.745-.275l-.258.235a1.552,1.552,0,0,0,.945.384l.241.04a4.647,4.647,0,0,1,1,.372,5.253,5.253,0,0,0,1.077.4,3.836,3.836,0,0,0,.573.069,5.164,5.164,0,0,1,.539.069,4.593,4.593,0,0,1,.991.384l.435.2c.264.109.539.2.8.292l.458.16c.5.183,1,.418,1.478.642s.848.4,1.283.573A6.249,6.249,0,0,0,150.354,397.983Z" transform="translate(-111.493 -168.132)" fill="#575988" opacity="0.5"/>
          <path id="Path_1599" data-name="Path 1599" d="M153.949,298.17a8.571,8.571,0,0,0-6.5-3.437,25.914,25.914,0,0,1-5.855-.464,14.659,14.659,0,0,0,4.44,1.759A77.542,77.542,0,0,1,153.949,298.17Z" transform="translate(-116.2 -125.68)" opacity="0.1"/>
          <path id="Path_1600" data-name="Path 1600" d="M149.711,301.2s-2.166-1.5-3.4-1.558-2.292-.172-2.292-.172a6.625,6.625,0,0,0,1.9.922C146.932,300.678,149.711,301.2,149.711,301.2Z" transform="translate(-113.349 -127.901)" opacity="0.1"/>
          <path id="Path_1601" data-name="Path 1601" d="M148.155,304.3s-3.26.258-3.289,1.146" transform="translate(-112.28 -129.963)" opacity="0.1"/>
          <path id="Path_1602" data-name="Path 1602" d="M97.251,214.746c-.172.029-3.088-3.031-3.289-4.24a2.962,2.962,0,0,0-1.266-1.868s-1.879.751-.206,3.054A9.273,9.273,0,0,0,97.251,214.746Z" transform="translate(-30.97 -89.108)" opacity="0.1"/>
          <path id="Path_1603" data-name="Path 1603" d="M139.933,44.652c.665,1.57,1.249,1.719,1.146,3.214a11.458,11.458,0,0,0,2.641,2.08c2.063,1.226,4.308,3.627,6.875,3.627a13.7,13.7,0,0,0,5.025-.951,9.271,9.271,0,0,1,1.639-4.675S136.908,37.531,139.933,44.652Z" transform="translate(-118.381 -18.007)" opacity="0.1"/>
          <path id="Path_1604" data-name="Path 1604" d="M127.306,26.589a13.75,13.75,0,1,0,13.75-13.75A13.75,13.75,0,0,0,127.306,26.589Z" transform="translate(-108.871 -5.483)" fill="#ffdad3"/>
          <path id="Path_1605" data-name="Path 1605" d="M138.8,67.237l4.417,6.577S164.092,83.771,160.1,72.1c-1.753-5.156-1.959-8.92-1.644-11.527h-.034a11.036,11.036,0,0,0-.418,2.653c-.063,1.8-.109,4.073-4.583,4.824A12.445,12.445,0,0,1,141.3,63.731,21.6,21.6,0,0,1,138.8,67.237Z" transform="translate(-121.261 -25.868)" opacity="0.1"/>
          <path id="Path_1606" data-name="Path 1606" d="M13.736,21.82,16.5,27.188a10.886,10.886,0,0,0,2.572-.539l.241-.286c-1.146.435-4.933-6.755-4.933-6.755l-.12.1C13.931,20.961,13.736,21.82,13.736,21.82Z" transform="translate(91.687 -8.375)" opacity="0.1"/>
          <path id="Path_1607" data-name="Path 1607" d="M99.886,196.139c8.915,3.873,39.75.573,39.75.573a4.222,4.222,0,0,1-.155-1.008c-.837-1.283-1.461-2.051-1.461-2.051l-36.943-1.444S100.476,193.853,99.886,196.139Z" transform="translate(-77.991 -82.091)" opacity="0.1"/>
          <path id="Path_1608" data-name="Path 1608" d="M50.181,43.669l4.114,1.759a3.26,3.26,0,0,0,2.939-1.908c.957-1.988,4.331,0,4.331,0s10.313-.779,14.117,1.146c0,0,6.148-2.6,7.013-2.773s2.166-.865,2.773-.693,1.381-1.146,1.816-1.037.607-.865,1.994-1.215,1.9.086,3.438-1.472,14.2-7.706,14.2-7.706l5.729-4.675,6.062-4.847s3.81,7.184,4.939,6.749L112.132,40.856s-8.313,7.27-14.031,9.608-5.282,3.031-5.282,3.031-17.32,8.834-20,8.662-2.177,18.075-1.031,21.02,2.939,24.245,2.939,24.245,1.719,4.5-.086,7.62c0,0-.43,6.411,0,7.534,0,0-31.024,3.317-39.83-.607,0,0-1.3-14.374,0-16.19s-1.215-5.867-1.215-5.867l-5.54-12.381-13.51-13.6s-2.074-11.344,7.19-18.614l6.148-5.46s3.438-2.973,4.446-3.162.636,0,.636,0A12.4,12.4,0,0,0,45.2,51.163c4.457-.75,4.5-3.025,4.583-4.818A11.229,11.229,0,0,1,50.181,43.669Z" transform="translate(-12.994 -8.648)" fill="#67647e"/>
          <path id="Path_1609" data-name="Path 1609" d="M132.226,142.489s19.056.779,22.86,6.766c0,0-4.939-2.343-9.35-1.65S132.226,142.489,132.226,142.489Z" transform="translate(-111.969 -60.856)" opacity="0.1"/>
          <path id="Path_1610" data-name="Path 1610" d="M148.224,175.68s-9.007.607-10.914-1.3-1.914-3.031-1.914-3.031Z" transform="translate(-106.923 -73.182)" opacity="0.1"/>
          <path id="Path_1611" data-name="Path 1611" d="M171.8,110.439s7.626,9.006-1.644,12.9Z" transform="translate(-153.367 -47.167)" opacity="0.1"/>
          <path id="Path_1612" data-name="Path 1612" d="M100.716,80.069s-2.773,5.655-4.16,6.027Z" transform="translate(-37.162 -34.197)" opacity="0.1"/>
          <path id="Path_1613" data-name="Path 1613" d="M88.463,75.829s-6.927,6.239-8.227,6.841C80.236,82.669,87.426,75.829,88.463,75.829Z" transform="translate(-15.56 -32.386)" opacity="0.1"/>
          <path id="Path_1614" data-name="Path 1614" d="M121.813,65.409s6.669,9.957,2.338,16.041C124.151,81.427,126.575,74.237,121.813,65.409Z" transform="translate(-76.531 -27.936)" opacity="0.1"/>
          <path id="Path_1615" data-name="Path 1615" d="M120.092,192.919l2.04,1.919.287.264,2.36,2.234c.166.126.332.252.5.367,9.608,6.875,11.533-3.575,11.533-3.575s4.24,2.773,4.847.521-9.872-5.454-11.459-5.282a2.051,2.051,0,0,1-.418,0,6.554,6.554,0,0,1-2.154-.762l-.464-.246a18.332,18.332,0,0,1-1.553-.98Z" transform="translate(-91.619 -80.028)" fill="#ffdad3"/>
          <path id="Path_1616" data-name="Path 1616" d="M134.676,26.584a13.75,13.75,0,0,0,6.7,11.836,7.808,7.808,0,0,0,.5-1c.493-1.146.8-2.383,1.295-3.535a10.885,10.885,0,0,1,2.292-3.369,1.461,1.461,0,0,1,.613-.424,1.65,1.65,0,0,1,1.26.349,5.792,5.792,0,0,0,1.919.842,2.04,2.04,0,0,0,1.925-.573,2.881,2.881,0,0,0,.309-2.4,29.9,29.9,0,0,1-.905-5.38,5.265,5.265,0,0,1,2.292-4.686c1.4-.8,3.134-.573,4.687-1.02a5.105,5.105,0,0,0,.7-.241,13.75,13.75,0,0,0-23.6,9.6Z" transform="translate(-116.562 -5.478)" opacity="0.1"/>
          <path id="Path_1617" data-name="Path 1617" d="M162.886,10.761c.246.132.521.372.447.647a.653.653,0,0,1-.252.321,6.01,6.01,0,0,1-2.177,1.117c-1.553.424-3.294.223-4.692,1.02a5.309,5.309,0,0,0-2.292,4.686,30.249,30.249,0,0,0,.9,5.374,2.89,2.89,0,0,1-.3,2.406,2.057,2.057,0,0,1-1.925.573,5.73,5.73,0,0,1-1.919-.836,1.667,1.667,0,0,0-1.266-.355,1.559,1.559,0,0,0-.613.424,10.886,10.886,0,0,0-2.292,3.374c-.5,1.146-.8,2.378-1.295,3.535a5.729,5.729,0,0,1-2.292,2.865,2.889,2.889,0,0,1-3.472-.367c-.848-.94-.779-2.229-1.18-3.357-.688-1.965-2.607-3.2-3.81-4.893-1.346-1.908-1.719-4.3-2.086-6.611a5.432,5.432,0,0,1-.034-2.211,7.941,7.941,0,0,1,.607-1.4c1.341-2.773,1.312-6.262,3.438-8.473,1.6-1.661,4.039-2.166,6.331-2.452s4.7-.447,6.663-1.656a7.247,7.247,0,0,1,1.8-1,1.478,1.478,0,0,1,1.776.665,1.181,1.181,0,0,0,.235.481.762.762,0,0,0,.682.04l3.048-.819-.35,1.535a7.632,7.632,0,0,0,3.237-.573c.057.871-.922,1.432-1.226,2.246a2.079,2.079,0,0,0,.573,2.108C160.256,10.291,161.637,10.079,162.886,10.761Z" transform="translate(-120.233 -1.457)" fill="#585268"/>
          <path id="Path_1618" data-name="Path 1618" d="M84.566,373.891l.126,1.381h.052c4.967,2.773,15.24-4.961,15.24-4.961l-1.071-1.071a1.868,1.868,0,0,0-.47,1.449l-2.1.115-2.509,2.71s-6.789.785-8.628.349Z" transform="translate(-29.561 -157.699)" opacity="0.1"/>
          <path id="Path_1619" data-name="Path 1619" d="M53.343,381.41c3.231.722,14.547.67,14.547.67l6.348,1s10.886,1.043,12.095-2.338-.951-3.168-.951-3.168H85.3l-4.532-.367s-5.729-2.223-7.855-3.753a45.617,45.617,0,0,1-4.7-4.217s-1.891-.367-1.856,1.822l-2.1.115-2.509,2.715s-6.789.785-8.628.344h-.642l.292,3.352-.08.1C52.249,378.213,50.456,380.768,53.343,381.41Z" transform="translate(2.533 -157.69)" fill="#67647e"/>
          <ellipse id="Ellipse_32" data-name="Ellipse 32" cx="0.315" cy="0.315" rx="0.315" ry="0.315" transform="translate(67.278 215.006)" fill="#575988"/>
          <ellipse id="Ellipse_33" data-name="Ellipse 33" cx="0.315" cy="0.315" rx="0.315" ry="0.315" transform="translate(75.419 218.535)" fill="#575988"/>
          <ellipse id="Ellipse_34" data-name="Ellipse 34" cx="0.315" cy="0.315" rx="0.315" ry="0.315" transform="translate(79.613 219.807)" fill="#575988"/>
          <ellipse id="Ellipse_35" data-name="Ellipse 35" cx="0.315" cy="0.315" rx="0.315" ry="0.315" transform="translate(73.282 217.859)" fill="#575988"/>
          <ellipse id="Ellipse_36" data-name="Ellipse 36" cx="0.315" cy="0.315" rx="0.315" ry="0.315" transform="translate(77.522 219.171)" fill="#575988"/>
          <ellipse id="Ellipse_37" data-name="Ellipse 37" cx="0.315" cy="0.315" rx="0.315" ry="0.315" transform="translate(71.122 216.857)" fill="#575988"/>
          <ellipse id="Ellipse_38" data-name="Ellipse 38" cx="0.315" cy="0.315" rx="0.315" ry="0.315" transform="translate(68.985 215.928)" fill="#575988"/>
          <path id="Path_1620" data-name="Path 1620" d="M53.343,387.639c3.231.722,14.547.67,14.547.67l6.348,1s10.886,1.043,12.095-2.337-.951-3.168-.951-3.168H85.3c-.693.9-2.086,1.919-4.818,1.971l-7.826.315-8.107-.573s-7.6-.223-8.835-.487a18.106,18.106,0,0,1-3.025-1.111C52.249,384.443,50.456,387,53.343,387.639Z" transform="translate(2.533 -163.919)" fill="#dce6f2"/>
          <path id="Path_1621" data-name="Path 1621" d="M94.2,389.885a4.7,4.7,0,0,0,1.283-.16l-.092-.332a6.359,6.359,0,0,1-3.22-.143c-.384-.1-.762-.212-1.146-.327a18.126,18.126,0,0,0-2.114-.533,17.518,17.518,0,0,0-3.483-.1h-.246a53.647,53.647,0,0,1-10.393-.464,3.889,3.889,0,0,1-2.223-.894l-.246.246a4.217,4.217,0,0,0,2.412.991,53.924,53.924,0,0,0,10.462.464h.252a17.238,17.238,0,0,1,3.438.1,17.058,17.058,0,0,1,2.068.521c.384.115.768.229,1.146.327A8.708,8.708,0,0,0,94.2,389.885Z" transform="translate(-18.038 -165.254)" fill="#575988" opacity="0.5"/>
          <path id="Path_1622" data-name="Path 1622" d="M145.386,192.914l2.04,1.919,5.065-6.485q-.8-.451-1.553-.98Z" transform="translate(-116.913 -80.024)" opacity="0.1"/>
          <path id="Path_1623" data-name="Path 1623" d="M149.644,104.3l-4.01,5.54v5.8a24.292,24.292,0,0,0,0,12.295l-.195,5.368s1.931,4.933,1.238,6.147c0,0,.344,3.638,5.019,6.147s9.98,8.456,9.98,8.456,1.994,3.81,7.362,2.945l5.111,2.166,5.884-7.534-7.964-4.331s-2.773-3.718-4.417-3.546l-6.755-7.883s-.172-2.509-1.9-2.509c0,0,3.2-2.6,2.08-4.154s-.178-8.49-.178-8.49Z" transform="translate(-144.134 -44.545)" fill="#67647e"/>
          <path id="Path_1624" data-name="Path 1624" d="M195.182,148.235s-9.092-.172-10.216,2.166S192.438,146.935,195.182,148.235Z" transform="translate(-182.224 -63.228)" opacity="0.1"/>
          <path id="Path_1625" data-name="Path 1625" d="M140.8,195.554a2.379,2.379,0,0,0,.04.453,3.06,3.06,0,0,0,2.865,2.6h.16a3.059,3.059,0,0,0,3.06-3.059h0a2.977,2.977,0,0,0-.172-.991c1.444-1.146,1.524-3.254,1.484-4.3a6.556,6.556,0,0,1-2.154-.762,14.252,14.252,0,0,1-1.507,3.077,3.214,3.214,0,0,0-.71-.086,3.065,3.065,0,0,0-3.065,3.065Z" transform="translate(-110.045 -80.933)" opacity="0.1"/>
          <path id="Path_1626" data-name="Path 1626" d="M143.173,188.3s2.051.464,2.051.837.464,3.753-1.788,5.156-2.022-1.936-2.022-1.936S143.35,189.387,143.173,188.3Z" transform="translate(-107.406 -80.421)" fill="#575988"/>
          <ellipse id="Ellipse_39" data-name="Ellipse 39" cx="3.059" cy="3.059" rx="3.059" ry="3.059" transform="translate(30.421 111.562)" fill="#e4aab4"/>
          <ellipse id="Ellipse_40" data-name="Ellipse 40" cx="2.624" cy="2.624" rx="2.624" ry="2.624" transform="translate(30.856 111.997)" fill="#dce6f2"/>
          <path id="Path_1627" data-name="Path 1627" d="M142.94,202.139a15.158,15.158,0,0,1-14.776,1.959v2.6s5.54,3.81,10.559,1.5S142.94,202.139,142.94,202.139Z" transform="translate(-97.543 -86.332)" opacity="0.1"/>
          <path id="Path_1628" data-name="Path 1628" d="M142.94,200.929a15.142,15.142,0,0,1-14.776,1.959v2.6s5.54,3.81,10.559,1.5S142.94,200.929,142.94,200.929Z" transform="translate(-97.543 -85.815)" opacity="0.1"/>
          <path id="Path_1629" data-name="Path 1629" d="M142.94,200.929a15.142,15.142,0,0,1-14.776,1.959v2.6s5.54,3.81,10.559,1.5S142.94,200.929,142.94,200.929Z" transform="translate(-97.543 -85.815)" fill="#444053"/>
          <path id="Path_1630" data-name="Path 1630" d="M143.244,200.929a15.15,15.15,0,0,1-14.782,1.959v2.6s5.54,3.81,10.565,1.5S143.244,200.929,143.244,200.929Z" transform="translate(-98.019 -85.815)" opacity="0.05"/>
          <path id="Path_1631" data-name="Path 1631" d="M103.191,369.239s-8.663,1.593-9.929,1.936.344.951.344.951S101.512,370.711,103.191,369.239Z" transform="translate(-37.471 -157.699)" opacity="0.1"/>
          <path id="Path_1632" data-name="Path 1632" d="M99.553,357.961c-.143,0-5.89-1.616-7.127-4.383" transform="translate(-33.634 -151.01)" opacity="0.1"/>
          <path id="Path_1633" data-name="Path 1633" d="M111.217,303.4s-2.326,3.059-3.827,2.974S109.854,303.282,111.217,303.4Z" transform="translate(-53.68 -129.577)" opacity="0.1"/>
          <path id="Path_1634" data-name="Path 1634" d="M111.73,312.3s-.98,2.16-2.424,1.467" transform="translate(-55.481 -133.38)" opacity="0.1"/>
          <path id="Path_1635" data-name="Path 1635" d="M125.213,229.281l-6.142,16.2s-.865-10.421.963-13.538A5.4,5.4,0,0,1,125.213,229.281Z" transform="translate(-74.441 -97.913)" opacity="0.05"/>
          <g id="Group_424" data-name="Group 424" transform="translate(13.794 2.537)" opacity="0.1">
            <path id="Path_1636" data-name="Path 1636" d="M143.4,4.927l.052-.235.985-.264-.109.481A8.368,8.368,0,0,1,143.4,4.927Z" transform="translate(-121.51 -4.429)"/>
            <path id="Path_1637" data-name="Path 1637" d="M139.074,9.582l-.1-.092a2.074,2.074,0,0,1-.573-2.108,2.778,2.778,0,0,1,.493-.785,8.1,8.1,0,0,0,1.421-.418c.057.865-.917,1.427-1.22,2.24A1.718,1.718,0,0,0,139.074,9.582Z" transform="translate(-114.478 -5.176)"/>
            <path id="Path_1638" data-name="Path 1638" d="M135.4,40.484a5.729,5.729,0,0,0,2.32-2.865c.487-1.146.791-2.383,1.289-3.529a10.886,10.886,0,0,1,2.292-3.374,1.5,1.5,0,0,1,.613-.424,1.673,1.673,0,0,1,1.26.349,5.792,5.792,0,0,0,1.919.842,2.051,2.051,0,0,0,1.925-.573,2.893,2.893,0,0,0,.309-2.406,29.839,29.839,0,0,1-.905-5.374,5.264,5.264,0,0,1,2.292-4.686c1.4-.8,3.134-.573,4.687-1.02a6.034,6.034,0,0,0,2.183-1.117,1.035,1.035,0,0,0,.115-.109,2.864,2.864,0,0,1,.378.178c.252.132.521.372.453.647a.7.7,0,0,1-.258.321,5.965,5.965,0,0,1-2.177,1.117c-1.553.424-3.289.223-4.687,1.02a5.309,5.309,0,0,0-2.292,4.686,29.756,29.756,0,0,0,.905,5.374,2.89,2.89,0,0,1-.309,2.406,2.051,2.051,0,0,1-1.925.573,5.729,5.729,0,0,1-1.919-.836,1.656,1.656,0,0,0-1.26-.355,1.518,1.518,0,0,0-.613.424,11,11,0,0,0-2.292,3.374c-.5,1.146-.8,2.378-1.295,3.535a5.729,5.729,0,0,1-2.292,2.865,2.834,2.834,0,0,1-3.438-.367,2.693,2.693,0,0,1-.516-.871A2.956,2.956,0,0,0,135.4,40.484Z" transform="translate(-127.188 -9.456)"/>
            <path id="Path_1639" data-name="Path 1639" d="M180.972,48c-.865-1.094-2.005-2.028-2.819-3.174-.161-.229-.309-.47-.447-.71C178.755,45.454,180.193,46.513,180.972,48Z" transform="translate(-177.706 -21.38)"/>
          </g>
        </g>
      </g>
    </g>
  </g>
</svg>
