<svg xmlns="http://www.w3.org/2000/svg" width="480.744" height="424.315" viewBox="0 0 480.744 424.315">
  <g id="undraw_ideas_s70l" transform="translate(-0.399 -0.509)">
    <ellipse id="Ellipse_52" data-name="Ellipse 52" cx="172.736" cy="30.516" rx="172.736" ry="30.516" transform="translate(97.818 363.792)" fill="#3f3d56"/>
    <path id="Path_1662" data-name="Path 1662" d="M325.4,314.921a82.253,82.253,0,1,0-38.163,30.642A26.607,26.607,0,1,0,325.4,314.92Z" transform="translate(-174.5 -125.062)" fill="#8472fc"/>
    <rect id="Rectangle_182" data-name="Rectangle 182" width="97.844" height="7.725" transform="translate(33.649 129.625)" fill="#fff"/>
    <rect id="Rectangle_183" data-name="Rectangle 183" width="97.844" height="7.725" transform="translate(33.649 142.715)" fill="#fff"/>
    <rect id="Rectangle_184" data-name="Rectangle 184" width="97.844" height="7.725" transform="translate(33.649 155.805)" fill="#fff"/>
    <path id="Path_1663" data-name="Path 1663" d="M745.252,205.647a82.253,82.253,0,1,1,38.164,30.642,26.607,26.607,0,1,1-38.164-30.642Z" transform="translate(-414.614 -76.973)" fill="#8472fc"/>
    <rect id="Rectangle_185" data-name="Rectangle 185" width="97.844" height="7.725" transform="translate(447.893 74.036) rotate(180)" fill="#fff"/>
    <rect id="Rectangle_186" data-name="Rectangle 186" width="97.844" height="7.725" transform="translate(447.893 88.229) rotate(180)" fill="#fff"/>
    <rect id="Rectangle_187" data-name="Rectangle 187" width="97.844" height="7.725" transform="translate(447.893 101.319) rotate(180)" fill="#fff"/>
    <path id="Path_1664" data-name="Path 1664" d="M495.041,652.226a45.921,45.921,0,1,1,21.306,17.107,14.854,14.854,0,1,1-21.306-17.107Z" transform="translate(-309.794 -291.549)" fill="#8472fc"/>
    <circle id="Ellipse_53" data-name="Ellipse 53" cx="5.314" cy="5.314" r="5.314" transform="translate(199.854 327.239)" fill="#fff"/>
    <circle id="Ellipse_54" data-name="Ellipse 54" cx="5.314" cy="5.314" r="5.314" transform="translate(218.168 327.239)" fill="#fff"/>
    <circle id="Ellipse_55" data-name="Ellipse 55" cx="5.314" cy="5.314" r="5.314" transform="translate(236.481 327.239)" fill="#fff"/>
    <path id="Path_1665" data-name="Path 1665" d="M571.667,366.381s23.711.645,27.627,2.069,5.667,11.613,5.667,11.613l-18.41,5.786-13.77-.78-10.363.732,5.787-15.155Z" transform="translate(-342.688 -201.32)" fill="#2f2e41"/>
    <path id="Path_1666" data-name="Path 1666" d="M578.926,352.486s1.56,6.025-1.9,10.291,14.884,19.468,14.884,19.468l9.678-1.664s-2.133-18.513.732-23.2S578.926,352.486,578.926,352.486Z" transform="translate(-348.928 -195.269)" fill="#9f616a"/>
    <path id="Path_1667" data-name="Path 1667" d="M578.926,352.486s1.56,6.025-1.9,10.291,14.884,19.468,14.884,19.468l9.678-1.664s-2.133-18.513.732-23.2S578.926,352.486,578.926,352.486Z" transform="translate(-348.928 -195.269)" opacity="0.1"/>
    <path id="Path_1668" data-name="Path 1668" d="M504.436,590.132l-21.355,28.319,14.574,8.509,20.058-32.817Z" transform="translate(-209.542 -252.613)" fill="#9f616a"/>
    <path id="Path_1669" data-name="Path 1669" d="M661.152,712.722s-7.864-9.137-7.514-7.1-5.6,19.317-.064,20.989,52.969,6.1,53.622.748-14.152-9.105-14.152-9.105-8.8-8.453-10.745-7.593S661.152,712.722,661.152,712.722Z" transform="translate(-381.131 -346.406)" fill="#2f2e41"/>
    <path id="Path_1670" data-name="Path 1670" d="M512.663,636.714l17.057,29.059,12.878-7.458-17.2-23.791Z" transform="translate(-222.416 -272.149)" fill="#9f616a"/>
    <path id="Path_1671" data-name="Path 1671" d="M714.171,590.353l-5.062,7.163s-24.132,33.517-21.57,36.223,13.236,12.934,18.665,10.952,24.713-36.239,24.713-36.239l-5.03-20.113Z" transform="translate(-396.902 -296.347)" fill="#2f2e41"/>
    <path id="Path_1672" data-name="Path 1672" d="M548.814,549.128s5.4,10.084,19.1,13.5,28.009,10.395,28.518,10.307,1.95-.86,2.3,1.178,4.107,5.587,4.107,5.587,15.131,51.417,20.909,51.473,17.654-4.083,17.9-5.7-17.694-54.123-17.869-55.142l-2.1-12.226s23.727,3.788,25.939,4.457,21.9,11.445,21.9,11.445,20.065-14.462,1.3-29.067-51.027-25.318-51.027-25.318l-11.573-3.255-10.086-.6-1.485-5.695-23.888,1.378-24.929,10.578Z" transform="translate(-335.775 -260.479)" fill="#2f2e41"/>
    <circle id="Ellipse_56" data-name="Ellipse 56" cx="18.607" cy="18.607" r="18.607" transform="translate(225.5 131.594)" fill="#9f616a"/>
    <path id="Path_1673" data-name="Path 1673" d="M566.811,367.081l2.238-.385s4.042,15.563,16.546,18.134c0,0,6.17-7.391,5.907-8.638s4.886-7.9,7.624-4.176-.668,69.341,1.632,70.52,7.235,2.428,3.263,6.781-19.747,10.212-23.241,8.19-10.634-19.15-13.722-24.913-8.031-25.366-8.031-25.366-6.312-21.466-2.428-26.329S566.811,367.081,566.811,367.081Z" transform="translate(-339.573 -200.841)" fill="#d0cde1"/>
    <path id="Path_1674" data-name="Path 1674" d="M572.186,446.081a106.169,106.169,0,0,1-2.131,13.588c-.913,3.644-1.975,5.844-3.188,5.75-3.094-.231-4.5,4.306-5.225,9.538-.775,5.55-.775,11.882-1.2,14.12-.563,2.956-4.163,5.213-11.357,4.55a50.766,50.766,0,0,1-12.513-3.069c-9.713-3.531-9.426-32.171-7.8-53.422.994-13.026,2.488-23.283,2.488-23.283a115.664,115.664,0,0,1-3.894-14.832,19.7,19.7,0,0,1-.281-3.331c.144-5.269,9.763-19.507,15.576-28.377s13.757-2.363,13.757-2.363l-2.763,8.338s4.281,6.607,4.313,12.895,10.251,10.826,13.919,13.87C574.193,401.966,574.136,427.5,572.186,446.081Z" transform="translate(-327.332 -198.64)" fill="#2f2e41"/>
    <path id="Path_1675" data-name="Path 1675" d="M621.15,372.081s.67.793,3.741.406c3.682-.464,8.745.81,9.921,4.326,2.157,6.447,8.238,32.673,8.238,32.673s2.531,29.983,3.669,36.6.573,12.488,1.7,15.966-11.079-6.487-15.576-5.189-7.386-15.513-6.821-21.379,1.043-12.241-.517-18.267,1.206-21.972,1.1-25.625S616.686,378.736,621.15,372.081Z" transform="translate(-367.758 -203.153)" fill="#2f2e41"/>
    <path id="Path_1676" data-name="Path 1676" d="M641.833,538.507s19.7,10.748,21.587,26.046-26.351-14.813-26.351-14.813Z" transform="translate(-375.188 -275.28)" fill="#9f616a"/>
    <path id="Path_1677" data-name="Path 1677" d="M665.664,517.756s6.037,30.429,15.441,28.813S675.852,516,675.852,516Z" transform="translate(-387.654 -265.598)" fill="#9f616a"/>
    <path id="Path_1678" data-name="Path 1678" d="M716.523,752.6s-4.815,5.548-6.009,4.7-3.94,10.642-1.464,12.838,12.01,5.8,12.114,9.456,25.677,2.929,26.592-.9-3.208-12.56-6.1-14.16-13.61-16.324-13.61-16.324S719.651,749.442,716.523,752.6Z" transform="translate(-405.913 -365.281)" fill="#2f2e41"/>
    <path id="Path_1679" data-name="Path 1679" d="M590.514,506.246c-4.569-3.225-17.326-4.025-28.652-4.769-4.969-.319-9.663-.631-13.269-1.138-3.475-.481-6.6-3.657-9.376-8.388-4.206-7.169-7.607-17.92-10.226-28.3.994-13.026,2.488-23.283,2.488-23.283a115.643,115.643,0,0,1-3.894-14.832,7.939,7.939,0,0,1,2.513-2.263c12.013-5.156,23.483,45.59,24.939,53.553.025.131.044.256.063.363.706,4.1,8.338,7.607,15.176,8.994,4.213.856,8.132.913,9.938-.2,4.744-2.913,19.332,8.744,20.439,9.076S597.077,510.89,590.514,506.246Z" transform="translate(-327.407 -225.003)" opacity="0.1"/>
    <path id="Path_1680" data-name="Path 1680" d="M527.464,417.7s-8.731,4.123-4.895,23.392,11.565,52.03,23.385,53.669,35.355,1.265,41.922,5.906,11.246-10.849,10.14-11.183-15.7-11.987-20.44-9.074-23.973-2.173-25.112-8.795S539.673,412.454,527.464,417.7Z" transform="translate(-324.791 -222.612)" fill="#2f2e41"/>
    <path id="Path_1681" data-name="Path 1681" d="M644.446,401.484l9.6,22.266s.966-.482,2.088,3,1.648,6.535,3.613,8.819,10.713,34.87,10.976,36.4-12.082,6.8-14.84,2.551S644.446,401.484,644.446,401.484Z" transform="translate(-378.392 -215.925)" fill="#2f2e41"/>
    <path id="Path_1682" data-name="Path 1682" d="M577.693,320.771c.713-.19.818-1.137.842-1.875.128-3.951,2.507-8,6.288-9.154a10.572,10.572,0,0,1,4.456-.245,16.879,16.879,0,0,1,6.035,2.013,9.415,9.415,0,0,0,3.068,1.39c.738.112,3.932,1.04,4.667,1.171,1.615.287,3.116,1.733,4.666,1.195,1.483-.514,1.811-2.434,1.847-4,.082-3.575-2.632-8.523-5.022-11.182-1.814-2.018-4.545-2.95-7.215-3.434a48.035,48.035,0,0,0-9.436-.574c-4.273.076-8.664.406-12.517,2.255s-7.089,5.528-7.274,9.8c-.038.889.053,1.782-.021,2.67-.183,2.164-1.332,4.119-1.871,6.222a11.386,11.386,0,0,0,1.59,9.1c1.43,2.1,3.677,4.008,3.595,6.55l3.1-3.212a2.546,2.546,0,0,0,.757-3.111l-1.1-4.281a3.862,3.862,0,0,1-.1-2.382C575.232,316.773,576.5,321.088,577.693,320.771Z" transform="translate(-344.178 -170.948)" fill="#2f2e41"/>
    <path id="Path_1683" data-name="Path 1683" d="M835.071,610.319c-.129-.21-3.158-5.269-4.209-15.774-.964-9.638-.344-25.883,8.081-48.544,15.961-42.93-3.678-77.568-3.879-77.913l.969-.562c.051.087,5.119,8.919,8.112,22.981a100.261,100.261,0,0,1-4.152,55.884c-15.934,42.857-4.088,63.144-3.966,63.345Z" transform="translate(-459.279 -241.756)" fill="#3f3d56"/>
    <circle id="Ellipse_57" data-name="Ellipse 57" cx="7.279" cy="7.279" r="7.279" transform="translate(362.171 205.827)" fill="#8472fc"/>
    <circle id="Ellipse_58" data-name="Ellipse 58" cx="7.279" cy="7.279" r="7.279" transform="translate(386.179 233.161)" fill="#3f3d56"/>
    <circle id="Ellipse_59" data-name="Ellipse 59" cx="7.279" cy="7.279" r="7.279" transform="translate(369.524 251.384)" fill="#8472fc"/>
    <circle id="Ellipse_60" data-name="Ellipse 60" cx="7.279" cy="7.279" r="7.279" transform="translate(389.539 266.76)" fill="#8472fc"/>
    <circle id="Ellipse_61" data-name="Ellipse 61" cx="7.279" cy="7.279" r="7.279" transform="translate(363.867 290.678)" fill="#3f3d56"/>
    <path id="Path_1684" data-name="Path 1684" d="M845.585,698.383s-7.279-17.918,14.558-31.356Z" transform="translate(-465.316 -329.551)" fill="#3f3d56"/>
    <path id="Path_1685" data-name="Path 1685" d="M807.756,707.6s-3.313-19.054-28.953-18.891Z" transform="translate(-436.713 -339.093)" fill="#3f3d56"/>
  </g>
</svg>
