<svg id="undraw_Messages_re_qy9x" xmlns="http://www.w3.org/2000/svg" width="480.74" height="424.31" viewBox="0 0 480.74 424.31">
  <path id="Path_1698" data-name="Path 1698" d="M731.861,186.3H729.48V122.519c0-20.387-16.9-36.913-37.753-36.913h-138.2c-20.85,0-37.753,16.526-37.753,36.912V472.4c0,20.386,16.9,36.912,37.753,36.912h138.2c20.85,0,37.753-16.526,37.753-36.912V231.693h2.381Z" transform="translate(-337.264 -85.607)" fill="#e6e6e6"/>
  <path id="Path_1699" data-name="Path 1699" d="M728.522,129.638V478.631c0,15.208-12.623,27.537-28.194,27.537H561.467c-15.571,0-28.194-12.328-28.195-27.537V129.638c0-15.208,12.623-27.537,28.194-27.537h16.846a12.829,12.829,0,0,0,1.291,12.235,13.491,13.491,0,0,0,11.113,5.787h79.172A13.491,13.491,0,0,0,681,114.336a12.829,12.829,0,0,0,1.291-12.235h18.036c15.571,0,28.194,12.328,28.195,27.537Z" transform="translate(-343.65 -92.279)" fill="#fff"/>
  <path id="Path_1700" data-name="Path 1700" d="M580.108,157.758a19.055,19.055,0,1,0,0,38.109h0a19.055,19.055,0,1,0,0-38.109Z" transform="translate(-343.33 -114.795)" fill="#e6e6e6"/>
  <path id="Path_1701" data-name="Path 1701" d="M754.191,210.285H654.155a4.764,4.764,0,1,1,0-9.527H754.191a4.764,4.764,0,0,1,0,9.527Z" transform="translate(-392.497 -132.19)" fill="#e6e6e6"/>
  <path id="Path_1702" data-name="Path 1702" d="M685.714,176.285H654.155a4.764,4.764,0,1,1,0-9.527h31.559a4.764,4.764,0,1,1,0,9.527Z" transform="translate(-386.224 -118.436)" fill="#e6e6e6"/>
  <path id="Path_1703" data-name="Path 1703" d="M580.108,291.758a19.055,19.055,0,1,0,0,38.109h0a19.055,19.055,0,1,0,0-38.109Z" transform="translate(-343.33 -171.996)" fill="#e6e6e6"/>
  <path id="Path_1704" data-name="Path 1704" d="M754.191,344.285H654.155a4.764,4.764,0,1,1,0-9.527H754.191a4.764,4.764,0,0,1,0,9.527Z" transform="translate(-392.497 -189.773)" fill="#e6e6e6"/>
  <path id="Path_1705" data-name="Path 1705" d="M685.714,310.285H654.155a4.764,4.764,0,1,1,0-9.527h31.559a4.764,4.764,0,1,1,0,9.527Z" transform="translate(-386.224 -175.558)" fill="#e6e6e6"/>
  <path id="Path_1706" data-name="Path 1706" d="M580.108,559.758a19.055,19.055,0,1,0,0,38.109h0a19.055,19.055,0,1,0,0-38.109Z" transform="translate(-343.33 -284.305)" fill="#e6e6e6"/>
  <path id="Path_1707" data-name="Path 1707" d="M754.191,612.285H654.155a4.764,4.764,0,1,1,0-9.527H754.191a4.764,4.764,0,0,1,0,9.527Z" transform="translate(-392.497 -301.819)" fill="#e6e6e6"/>
  <path id="Path_1708" data-name="Path 1708" d="M685.714,578.285H654.155a4.764,4.764,0,1,1,0-9.527h31.559a4.764,4.764,0,1,1,0,9.527Z" transform="translate(-386.224 -287.604)" fill="#e6e6e6"/>
  <path id="Path_1709" data-name="Path 1709" d="M580.108,693.758a19.055,19.055,0,1,0,0,38.109h0a19.055,19.055,0,1,0,0-38.109Z" transform="translate(-343.33 -341.281)" fill="#e6e6e6"/>
  <path id="Path_1710" data-name="Path 1710" d="M754.191,746.285H654.155a4.764,4.764,0,1,1,0-9.527H754.191a4.764,4.764,0,0,1,0,9.527Z" transform="translate(-392.497 -358.676)" fill="#e6e6e6"/>
  <path id="Path_1711" data-name="Path 1711" d="M685.714,712.285H654.155a4.764,4.764,0,1,1,0-9.527h31.559a4.764,4.764,0,1,1,0,9.527Z" transform="translate(-386.224 -344.922)" fill="#e6e6e6"/>
  <path id="Path_1712" data-name="Path 1712" d="M727.393,471.245H497.547a9.836,9.836,0,0,1-9.825-9.825V387.583a9.836,9.836,0,0,1,9.825-9.825H727.393a9.836,9.836,0,0,1,9.825,9.825V461.42A9.836,9.836,0,0,1,727.393,471.245Z" transform="translate(-327.226 -208.725)" fill="#fff"/>
  <path id="Path_1713" data-name="Path 1713" d="M533.127,464.988a27.228,27.228,0,1,1,27.228-27.228,27.228,27.228,0,0,1-27.228,27.228Zm0-53.265a26.037,26.037,0,1,0,26.037,26.037,26.037,26.037,0,0,0-26.037-26.037Z" transform="translate(-317.646 -221.973)" fill="#3f3d56"/>
  <path id="Path_1714" data-name="Path 1714" d="M776.848,484.949H637.028a6.658,6.658,0,0,1,0-13.316h139.82a6.658,6.658,0,1,1,0,13.316Z" transform="translate(-388.003 -247.045)" fill="#8472fc"/>
  <path id="Path_1715" data-name="Path 1715" d="M681.138,437.427h-44.11a6.658,6.658,0,0,1,0-13.316h44.11a6.658,6.658,0,1,1,0,13.316Z" transform="translate(-378.317 -227.171)" fill="#8472fc"/>
  <path id="Path_1716" data-name="Path 1716" d="M727.393,471.245H497.547a9.836,9.836,0,0,1-9.825-9.825V387.583a9.836,9.836,0,0,1,9.825-9.825H727.393a9.836,9.836,0,0,1,9.825,9.825V461.42A9.836,9.836,0,0,1,727.393,471.245ZM497.547,378.353a9.24,9.24,0,0,0-9.23,9.23V461.42a9.24,9.24,0,0,0,9.23,9.23H727.393a9.24,9.24,0,0,0,9.23-9.23V387.583a9.24,9.24,0,0,0-9.229-9.23Z" transform="translate(-327.226 -208.725)" fill="#3f3d56"/>
  <circle id="Ellipse_79" data-name="Ellipse 79" cx="11.108" cy="11.108" r="11.108" transform="translate(203.714 206.779)" fill="#2f2e41"/>
  <ellipse id="Ellipse_80" data-name="Ellipse 80" cx="4.596" cy="3.447" rx="4.596" ry="3.447" transform="translate(199.341 210.468) rotate(-45)" fill="#2f2e41"/>
  <ellipse id="Ellipse_81" data-name="Ellipse 81" cx="3.447" cy="4.596" rx="3.447" ry="4.596" transform="translate(215.595 208.193) rotate(-66.869)" fill="#2f2e41"/>
  <circle id="Ellipse_82" data-name="Ellipse 82" cx="9.427" cy="9.427" r="9.427" transform="translate(205.678 211.051)" fill="#ffb8b8"/>
  <path id="Path_1717" data-name="Path 1717" d="M534.774,450.921a12.821,12.821,0,0,0,7.327,2.265,7.856,7.856,0,0,1-3.114,1.281,25.854,25.854,0,0,0,10.56.059,6.835,6.835,0,0,0,2.211-.759,2.8,2.8,0,0,0,1.365-1.825c.232-1.324-.8-2.526-1.872-3.337a13.8,13.8,0,0,0-11.6-2.318,6.353,6.353,0,0,0-3.436,1.942,3.13,3.13,0,0,0-.289,3.717Z" transform="translate(-329.487 -236.224)" fill="#2f2e41"/>
  <path id="Path_1718" data-name="Path 1718" d="M317.542,566.912a6.4,6.4,0,0,1,5.329-8.235l30.567-35.717,7.129,7.485-30.446,34.247a6.431,6.431,0,0,1-12.579,2.22Z" transform="translate(-225.742 -269.056)" fill="#a0616a"/>
  <path id="Path_1719" data-name="Path 1719" d="M361.312,522.311a2.677,2.677,0,0,1,.762-2.1l9.443-9.576a7.442,7.442,0,1,1,12.042,8.747l-6.279,11.942a2.68,2.68,0,0,1-3.953.916L362.4,524.258A2.677,2.677,0,0,1,361.312,522.311Z" transform="translate(-246.392 -262.241)" fill="#8472fc"/>
  <circle id="Ellipse_83" data-name="Ellipse 83" cx="14.625" cy="14.625" r="14.625" transform="translate(121.31 209.714)" fill="#a0616a"/>
  <path id="Path_1720" data-name="Path 1720" d="M381.221,549.444a2.649,2.649,0,0,1-1.052-1.825,234.015,234.015,0,0,0-4.408-25.134,15.775,15.775,0,0,1,29.294-10.948c5.752,10.794,6.191,25.615,6.113,31.485a2.675,2.675,0,0,1-2.235,2.6l-25.661,4.319a2.712,2.712,0,0,1-.453.038A2.657,2.657,0,0,1,381.221,549.444Z" transform="translate(-253.576 -260.735)" fill="#2f2e41"/>
  <path id="Path_1721" data-name="Path 1721" d="M452.039,497.62a6.265,6.265,0,0,0-.142.977l-25.579,14.757-6.217-3.579-6.628,8.677,10.391,7.406a4.764,4.764,0,0,0,5.715-.139l26.377-20.809a6.251,6.251,0,1,0-3.916-7.289Z" transform="translate(-272.613 -256.182)" fill="#a0616a"/>
  <path id="Path_1722" data-name="Path 1722" d="M416.925,520.271l-8.267,10.715a2.68,2.68,0,0,1-4.051.222l-9.359-9.718a7.442,7.442,0,1,1,9.126-11.757l11.738,6.564a2.68,2.68,0,0,1,.813,3.975Z" transform="translate(-261.379 -262.473)" fill="#8472fc"/>
  <path id="Path_1723" data-name="Path 1723" d="M315.251,697.312h7.3l1.719-28.067-9.02-.091Z" transform="translate(-150.903 -280.352)" fill="#a0616a"/>
  <path id="Path_1724" data-name="Path 1724" d="M452.125,798.046H466.5a9.162,9.162,0,0,1,9.162,9.162v.3H452.125Z" transform="translate(-290.048 -383.47)" fill="#2f2e41"/>
  <path id="Path_1725" data-name="Path 1725" d="M198.251,697.312h7.3l3.473-28.158H198.25Z" transform="translate(-94.946 -280.352)" fill="#a0616a"/>
  <path id="Path_1726" data-name="Path 1726" d="M335.125,798.046H349.5a9.162,9.162,0,0,1,9.162,9.162v.3H335.125Z" transform="translate(-233.802 -383.47)" fill="#2f2e41"/>
  <path id="Path_1727" data-name="Path 1727" d="M343.874,693.482l-9.06-1.182a2.679,2.679,0,0,1-2.241-3.352l13.215-64.942a150.98,150.98,0,0,0,2.721-19.108c.386-5.224,1.915-12.612,7.01-18.135a76.592,76.592,0,0,0,5.791-7.155l4-5.539,26.648-4.24.018.33A154.425,154.425,0,0,0,408.135,631a68.715,68.715,0,0,1,7.207,27.374l1.51,29.447a2.683,2.683,0,0,1-.776,2.026,2.649,2.649,0,0,1-2.022.787l-8.661-.394a2.684,2.684,0,0,1-2.493-2.091l-7.231-32.262a2.1,2.1,0,0,0-.366-.795L372.61,624.84a1.489,1.489,0,0,0-2.6.4L346.75,691.71a2.693,2.693,0,0,1-2.532,1.795A2.633,2.633,0,0,1,343.874,693.482Z" transform="translate(-234.457 -291.147)" fill="#2f2e41"/>
  <path id="Path_1728" data-name="Path 1728" d="M339.795,441.518a64.867,64.867,0,0,0,2.563-10.8,7.318,7.318,0,0,0-1.931-5.907c-2.911-2.758-7.856-1.444-10.9,1.166-4.4,3.772-6.593,9.568-7.422,15.3s-.464,11.567-.664,17.358-1.028,11.746-3.98,16.732-8.431,8.813-14.21,8.389a10,10,0,0,1-6.26-2.653,7.259,7.259,0,0,1-2.18-6.3c-2.954,5.289-1.456,12.458,2.949,16.615s11.183,5.333,16.975,3.558A23.461,23.461,0,0,0,328.14,483.4a35.533,35.533,0,0,0,3.74-17.58c-.116-4.651-.907-9.339-.121-13.924s3.656-9.241,8.181-10.321Z" transform="translate(-214.284 -227.575)" fill="#2f2e41"/>
  <path id="Path_1729" data-name="Path 1729" d="M389.974,452.68a5.789,5.789,0,0,0,6.377,3.731A7.478,7.478,0,0,0,402,451.223a10.681,10.681,0,0,0-.835-7.831,12.194,12.194,0,0,0-6.977-6.215,10.012,10.012,0,0,0-9.1,1.455,3.348,3.348,0,0,0-2.34-2.447,6.4,6.4,0,0,0-3.511.052,14.467,14.467,0,0,0-8.052,5.858,23.541,23.541,0,0,0-3.649,9.407c-.9,5.043-.567,10.553,2.265,14.821s8.626,6.788,13.327,4.753a6.21,6.21,0,0,0-1.2-4.306,13.132,13.132,0,0,1-2.064-4.059c-.309-1.5.283-3.324,1.729-3.813,1.234-.417,2.55.259,3.85.34a4.218,4.218,0,0,0,4.046-6.078Z" transform="translate(-249.563 -232.399)" fill="#2f2e41"/>
  <path id="Path_1730" data-name="Path 1730" d="M620.217,813.584H140.523a.6.6,0,0,1,0-1.191H620.217a.6.6,0,0,1,0,1.191Z" transform="translate(-140 -389.274)" fill="#ccc"/>
</svg>
