<svg xmlns="http://www.w3.org/2000/svg" width="15.453" height="15.452" viewBox="0 0 15.453 15.452">
  <g id="emojis" transform="translate(0.333 0.333)">
    <path id="dp_path002" d="M1600.283,14812a7.393,7.393,0,1,0,7.393,7.353A7.393,7.393,0,0,0,1600.283,14812Zm0,14a6.561,6.561,0,0,1-4.649-1.9,6.364,6.364,0,0,1-1.194-1.659,6.5,6.5,0,0,1-.751-3.085,6.624,6.624,0,0,1,6.594-6.562,6.825,6.825,0,0,1,4.468,1.74,6.871,6.871,0,0,1,2.127,4.822A6.642,6.642,0,0,1,1600.283,14826Z" transform="translate(-1592.89 -14812)" fill="#bec4ca" stroke="#bec4ca" stroke-width="0.667" fill-rule="evenodd"/>
    <path id="dp_path003" d="M1598.624,14818.99a.762.762,0,0,1,.783.791h.8a1.578,1.578,0,1,0-3.155,0h.8A.76.76,0,0,1,1598.624,14818.99Z" transform="translate(-1593.761 -14813.297)" fill="#bec4ca" stroke="#bec4ca" stroke-width="0.667" fill-rule="evenodd"/>
    <path id="dp_path004" d="M1605.014,14818.99a.762.762,0,0,1,.783.791h.8a1.578,1.578,0,1,0-3.155,0h.8A.76.76,0,0,1,1605.014,14818.99Z" transform="translate(-1595.098 -14813.297)" fill="#bec4ca" stroke="#bec4ca" stroke-width="0.667" fill-rule="evenodd"/>
    <path id="dp_path005" d="M1601.2,14825.829a4.714,4.714,0,0,0,3.875-2.056l-.672-.474a3.888,3.888,0,0,1-3.629,1.738,3.94,3.94,0,0,1-2.752-1.738l-.672.474a4.752,4.752,0,0,0,3.337,2.056Z" transform="translate(-1593.823 -14814.364)" fill="#bec4ca" stroke="#bec4ca" stroke-width="0.667" fill-rule="evenodd"/>
  </g>
</svg>
