<svg xmlns="http://www.w3.org/2000/svg" width="152" height="71.846" viewBox="0 0 152 71.846">
  <g id="EmptyState" transform="translate(0 1.25)">
    <path id="Background" d="M142.148,45a4.927,4.927,0,1,1,4.926,5A4.964,4.964,0,0,1,142.148,45ZM98.519,50a4.881,4.881,0,0,1-1.056-.115A4.886,4.886,0,0,1,96.407,50H32.37a5,5,0,0,1,0-10H4.926a5,5,0,0,1,0-10H33.074a5,5,0,0,0,0-10H15.481a5,5,0,0,1,0-10H43.63A4.964,4.964,0,0,1,38.7,5,4.963,4.963,0,0,1,43.63,0H83.741a4.963,4.963,0,0,1,4.926,5,4.964,4.964,0,0,1-4.926,5h45.037a5,5,0,0,1,0,10h15.482a5,5,0,0,1,0,10h-13.37a5,5,0,0,0,0,10h4.222a5,5,0,0,1,0,10Z" transform="translate(0 10.496)" fill="#8472fc"/>
    <path id="Shape" d="M59.016,69.346h0a1.42,1.42,0,0,1-.86-.292L49.24,62.194a46.92,46.92,0,0,1-10.511,1.181,45.98,45.98,0,0,1-15.075-2.49,39.987,39.987,0,0,1-12.31-6.791,32.069,32.069,0,0,1-8.3-10.072,26.515,26.515,0,0,1,0-24.668,32.069,32.069,0,0,1,8.3-10.072A39.987,39.987,0,0,1,23.654,2.49a46.877,46.877,0,0,1,30.15,0,39.987,39.987,0,0,1,12.31,6.791,32.069,32.069,0,0,1,8.3,10.072,26.563,26.563,0,0,1-.659,25.874c-.437.754-.914,1.5-1.419,2.22l-6.442,6.826a38.565,38.565,0,0,1-5.586,3.731l.116,9.916a1.41,1.41,0,0,1-1.391,1.425Zm9.522-17.428h0l2.015-2.165C69.913,50.5,69.235,51.233,68.538,51.918Z" transform="translate(40.812 0)" fill="#fff" stroke="#8472fc" stroke-linecap="round" stroke-miterlimit="10" stroke-width="2.5"/>
    <path id="Shape-2" data-name="Shape" d="M26.6,4A4.205,4.205,0,0,1,35,4a4.205,4.205,0,0,1-8.4,0ZM13.3,4a4.1,4.1,0,0,1,4.2-4,4.1,4.1,0,0,1,4.2,4,4.1,4.1,0,0,1-4.2,4A4.1,4.1,0,0,1,13.3,4ZM0,4A4.1,4.1,0,0,1,4.2,0,4.1,4.1,0,0,1,8.4,4,4.1,4.1,0,0,1,4.2,8,4.1,4.1,0,0,1,0,4Z" transform="translate(61 27.496)" fill="#e8f0fe" stroke="#8472fc" stroke-miterlimit="10" stroke-width="2.5"/>
    <path id="Line" d="M1.655,0A24.192,24.192,0,0,0,0,3.353" transform="translate(49.482 21.344)" fill="none" stroke="#8472fc" stroke-linecap="round" stroke-miterlimit="10" stroke-width="2.5"/>
    <path id="Line-2" data-name="Line" d="M11.325,0A30.656,30.656,0,0,0,0,9.046" transform="translate(52.74 9.91)" fill="none" stroke="#8472fc" stroke-linecap="round" stroke-miterlimit="10" stroke-width="2.5"/>
  </g>
</svg>
