<svg xmlns="http://www.w3.org/2000/svg" width="242.929" height="209.589" viewBox="0 0 242.929 209.589">
  <g id="Group_534" data-name="Group 534" transform="translate(-378.535 -7357.197)">
    <g id="Oops_404_Error_with_a_broken_robot-rafiki" data-name="Oops! 404 Error with a broken robot-rafiki" transform="translate(378.535 7330.774)">
      <g id="freepik--background-complete--inject-4" transform="translate(0 55)">
        <rect id="Rectangle_208" data-name="Rectangle 208" width="242.929" height="0.121" transform="translate(0 159.07)" fill="#ebebeb"/>
        <rect id="Rectangle_209" data-name="Rectangle 209" width="10.533" height="0.121" transform="translate(208.054 166.888)" fill="#ebebeb"/>
        <rect id="Rectangle_210" data-name="Rectangle 210" width="16.573" height="0.121" transform="translate(150.888 164.371)" fill="#ebebeb"/>
        <rect id="Rectangle_211" data-name="Rectangle 211" width="21.635" height="0.121" transform="translate(192.687 162.379)" fill="#ebebeb"/>
        <rect id="Rectangle_212" data-name="Rectangle 212" width="5.412" height="0.121" transform="translate(78.651 164.828)" fill="#ebebeb"/>
        <rect id="Rectangle_213" data-name="Rectangle 213" width="18.652" height="0.121" transform="translate(55.67 164.828)" fill="#ebebeb"/>
        <rect id="Rectangle_214" data-name="Rectangle 214" width="13.458" height="0.121" transform="translate(32.217 162.777)" fill="#ebebeb"/>
        <path id="Path_1748" data-name="Path 1748" d="M134.794,192.4H40.979a2.774,2.774,0,0,1-2.769-2.774V57.75A2.774,2.774,0,0,1,40.979,55h93.814a2.774,2.774,0,0,1,2.774,2.774V189.627A2.774,2.774,0,0,1,134.794,192.4ZM40.979,55.1a2.653,2.653,0,0,0-2.648,2.653V189.627a2.653,2.653,0,0,0,2.648,2.653h93.814a2.658,2.658,0,0,0,2.653-2.653V57.75a2.658,2.658,0,0,0-2.653-2.653Z" transform="translate(-19.645 -55)" fill="#ebebeb"/>
        <path id="Path_1749" data-name="Path 1749" d="M351.094,192.4H257.274a2.779,2.779,0,0,1-2.774-2.774V57.75A2.779,2.779,0,0,1,257.274,55h93.819a2.774,2.774,0,0,1,2.765,2.75V189.627A2.774,2.774,0,0,1,351.094,192.4ZM257.274,55.1a2.658,2.658,0,0,0-2.653,2.653V189.627a2.658,2.658,0,0,0,2.653,2.653h93.819a2.658,2.658,0,0,0,2.653-2.653V57.75a2.658,2.658,0,0,0-2.653-2.653Z" transform="translate(-130.849 -55)" fill="#ebebeb"/>
        <path id="Path_1750" data-name="Path 1750" d="M126.342,151.029l.219-6.384-3.916-1.283a38.481,38.481,0,0,0-1.049-6.413l3.323-2.429-2.254-6-4.11.33a37.981,37.981,0,0,0-3.4-5.514l2.128-3.552-4.373-4.669L109.235,117a39.734,39.734,0,0,0-5.276-3.809l.593-4.081-5.83-2.643-2.672,3.129a39.188,39.188,0,0,0-6.316-1.458l-.972-4-6.4-.219-1.263,3.921a39.1,39.1,0,0,0-6.408,1.045l-2.468-3.3-6,2.24.33,4.11a38.932,38.932,0,0,0-5.514,3.435l-3.576-2.177-4.689,4.373,1.88,3.693a37.706,37.706,0,0,0-3.79,5.267l-4.076-.612-2.663,5.83,3.148,2.667a38.158,38.158,0,0,0-1.458,6.316l-4.047,1.015-.219,6.384,3.935,1.283a37.606,37.606,0,0,0,1.045,6.409l-3.323,2.429,2.259,6,4.11-.33a37.411,37.411,0,0,0,3.4,5.515l-2.133,3.552,4.373,4.669,3.673-1.88a39.229,39.229,0,0,0,5.267,3.8l-.612,4.076,5.83,2.648,2.687-3.129a39.71,39.71,0,0,0,6.316,1.482l.972,4,6.4.219,1.263-3.921A39.6,39.6,0,0,0,93.43,183.9l2.429,3.3,6-2.24-.311-4.11a40.537,40.537,0,0,0,5.515-3.435l3.532,2.128,4.689-4.373-1.88-3.693a37.6,37.6,0,0,0,3.79-5.267l4.076.612,2.662-5.83-3.148-2.672a37.538,37.538,0,0,0,1.482-6.316ZM83.2,171.712a25.342,25.342,0,1,1,26.183-24.453A25.342,25.342,0,0,1,83.2,171.712Z" transform="translate(-21.363 -80.152)" fill="#ebebeb"/>
        <path id="Path_1751" data-name="Path 1751" d="M415.786,129.821l1.608-1.5-.636-1.268a13.408,13.408,0,0,0,1.307-1.817l1.409.209.909-2.011-1.079-.918a13.038,13.038,0,0,0,.51-2.182l1.385-.345.068-2.206-1.351-.437a13.76,13.76,0,0,0-.36-2.216l1.142-.85-.777-2.065-1.414.112a13.727,13.727,0,0,0-1.181-1.9l.734-1.215-1.511-1.613-1.263.646a13.717,13.717,0,0,0-1.817-1.307l.2-1.409-2.007-.918-.923,1.083a13.523,13.523,0,0,0-2.182-.486l-.345-1.38-2.206-.083-.442,1.36a13.118,13.118,0,0,0-2.206.36l-.845-1.142-2.07.773.117,1.419a12.915,12.915,0,0,0-1.9,1.181l-1.224-.734-1.613,1.5.627,1.239a12.922,12.922,0,0,0-1.312,1.817l-1.4-.209-.913,2.011,1.083.923a12.875,12.875,0,0,0-.486,2.177l-1.39.345-.068,2.206,1.356.437a13.235,13.235,0,0,0,.355,2.216l-1.147.845.777,2.065,1.419-.107a13.728,13.728,0,0,0,1.181,1.9l-.734,1.215,1.511,1.613,1.263-.646a13.291,13.291,0,0,0,1.817,1.307l-.209,1.4,2.011.918.923-1.079a14.061,14.061,0,0,0,2.182.486l.345,1.38,2.206.083.442-1.36a13.049,13.049,0,0,0,2.206-.36l.845,1.142,2.07-.773-.112-1.419a12.966,12.966,0,0,0,1.9-1.181Zm-11.476-9.294a2.877,2.877,0,1,1-.019,0Z" transform="translate(-201.523 -80.059)" fill="#ebebeb"/>
        <path id="Path_1752" data-name="Path 1752" d="M250.5,262.057l-5.024-3.474h0a27.33,27.33,0,0,0-2.021-5.233l1.288-5.053-7.288-7.8-5.131.938a27.354,27.354,0,0,0-5.087-2.376h0l-3.119-5.252-10.689-.364-3.469,5.024h0a27.466,27.466,0,0,0-5.228,2.016l-5.053-1.288-7.8,7.288.938,5.121h0a27.321,27.321,0,0,0-2.371,5.1l-5.252,3.119-.364,10.689,5.029,3.469a26.6,26.6,0,0,0,2.016,5.257h0l-1.3,5.009,7.288,7.8,5.1-.933a27.784,27.784,0,0,0,5.121,2.381h0l3.114,5.242,10.689.369,3.464-5.024a27.735,27.735,0,0,0,5.276-2.021h0l5.024,1.283,7.808-7.288-.938-5.121a26.918,26.918,0,0,0,2.371-5.1h0l5.252-3.119ZM217.246,278.28a12.006,12.006,0,1,1,12.409-11.593,12.006,12.006,0,0,1-12.409,11.593Z" transform="translate(-95.029 -146.743)" fill="#ebebeb"/>
        <path id="Path_1753" data-name="Path 1753" d="M311.565,172.98h-.034l-8.415-.287a1.011,1.011,0,0,1-.845-.486L300,168.393a23.241,23.241,0,0,1-3.537-1.642l-3.629.627a1.02,1.02,0,0,1-.933-.311l-5.748-6.151a1.02,1.02,0,0,1-.243-.972l.918-3.6a22.082,22.082,0,0,1-1.39-3.629l-3.659-2.526a1.02,1.02,0,0,1-.442-.879l.287-8.415a1.04,1.04,0,0,1,.486-.845l3.824-2.269a22.02,22.02,0,0,1,1.637-3.522l-.67-3.659a1.025,1.025,0,0,1,.311-.938l6.151-5.743a1.025,1.025,0,0,1,.972-.248l3.615.923a22.267,22.267,0,0,1,3.62-1.394l2.526-3.659a.972.972,0,0,1,.879-.442l8.41.292a1.025,1.025,0,0,1,.85.486l2.269,3.819a22.549,22.549,0,0,1,3.508,1.642l3.673-.675a1.015,1.015,0,0,1,.933.311l5.748,6.151a1.03,1.03,0,0,1,.243.972l-.923,3.61a22.635,22.635,0,0,1,1.4,3.62l3.654,2.526a1.02,1.02,0,0,1,.442.879l-.287,8.41a1.049,1.049,0,0,1-.486.85l-3.824,2.269a22.593,22.593,0,0,1-1.637,3.518l.67,3.663a1.015,1.015,0,0,1-.311.933l-6.19,5.748a1.02,1.02,0,0,1-.972.243l-3.6-.918a23.072,23.072,0,0,1-3.639,1.394l-2.5,3.654A1.035,1.035,0,0,1,311.565,172.98Zm-7.817-2.318,7.288.248,2.429-3.493a.972.972,0,0,1,.578-.408,21.3,21.3,0,0,0,3.96-1.521h0a1.049,1.049,0,0,1,.709-.073l3.4.87,5.344-4.98-.612-3.513a1.015,1.015,0,0,1,.126-.714,20.2,20.2,0,0,0,1.773-3.8,1.035,1.035,0,0,1,.457-.573l3.659-2.167.248-7.288-3.5-2.429a1.025,1.025,0,0,1-.394-.52c0-.024,0-.053,0-.083a20.9,20.9,0,0,0-1.516-3.887,1.025,1.025,0,0,1-.078-.719l.875-3.44-4.98-5.344-3.493.641a1.035,1.035,0,0,1-.709-.126,20.553,20.553,0,0,0-3.809-1.783,1.109,1.109,0,0,1-.219-.1,1.021,1.021,0,0,1-.34-.35l-2.191-3.668-7.288-.253-2.429,3.5a1.049,1.049,0,0,1-.6.413,20.712,20.712,0,0,0-3.916,1.511,1.011,1.011,0,0,1-.714.078l-3.44-.875-5.344,4.98.641,3.484a1.059,1.059,0,0,1-.092.646l-.049.083a20.192,20.192,0,0,0-1.773,3.819,1.03,1.03,0,0,1-.447.544l-3.659,2.172-.248,7.288,3.5,2.429a1.02,1.02,0,0,1,.408.573,20.172,20.172,0,0,0,1.511,3.945,1.232,1.232,0,0,1,.083.223,1.088,1.088,0,0,1,0,.486l-.875,3.4,4.98,5.344,3.469-.636a1.02,1.02,0,0,1,.7.126,21.02,21.02,0,0,0,3.833,1.783.972.972,0,0,1,.568.452Zm12.04-46.064Zm-7.536,36.848h-.539a15.319,15.319,0,1,1,.539,0Zm0-28.709a13.385,13.385,0,1,0,.462,0Z" transform="translate(-144.648 -87.954)" fill="#ebebeb"/>
        <path id="Path_1754" data-name="Path 1754" d="M378.761,99.2l-3.488-.933-.933-3.488,1.365-1.36,1.438,2.978,2.983,1.443Z" transform="translate(-192.464 -74.753)" fill="#e0e0e0"/>
        <path id="Path_1755" data-name="Path 1755" d="M381.448,95.332a1.625,1.625,0,0,0-2.3-2.3l1.735-2.6,2.322,1.176.51,2.429Z" transform="translate(-194.937 -73.216)" fill="#e0e0e0"/>
        <path id="Path_1756" data-name="Path 1756" d="M376.58,91.3l2.556-2.556,3.479.928.938,3.484L381,95.707l-3.484-.938Zm4.64,2.089a1.152,1.152,0,1,1,0-.01Z" transform="translate(-193.615 -72.347)" fill="#f0f0f0"/>
        <path id="Path_1757" data-name="Path 1757" d="M89.444,293.425l1.871-.505.5-1.871-.729-.729-.773,1.6-1.6.773Z" transform="translate(-45.609 -175.988)" fill="#e0e0e0"/>
        <path id="Path_1758" data-name="Path 1758" d="M88.684,291.349a.875.875,0,0,1,1.234-1.234l-.928-1.394-1.278.622-.272,1.312Z" transform="translate(-44.957 -175.165)" fill="#e0e0e0"/>
        <path id="Path_1759" data-name="Path 1759" d="M89.957,289.17l-1.37-1.37-1.871.486-.486,1.871,1.346,1.385,1.871-.486Zm-2.488,1.122a.875.875,0,1,1,1.195-.04.875.875,0,0,1-1.195.04Z" transform="translate(-44.334 -174.692)" fill="#f0f0f0"/>
        <path id="Path_1760" data-name="Path 1760" d="M76.05,83.809,77.6,85.364a1.04,1.04,0,0,0,1.458,0h0a1.045,1.045,0,0,0,0-1.458l-1.55-1.55a1.045,1.045,0,0,0-1.458,0h0A1.04,1.04,0,0,0,76.05,83.809Z" transform="translate(-38.949 -68.913)" fill="#f0f0f0"/>
        <path id="Path_1761" data-name="Path 1761" d="M72.455,77.626A2.162,2.162,0,1,1,71,80.434a2.23,2.23,0,0,1,1.458-2.808Z" transform="translate(-36.448 -66.592)" fill="#e0e0e0"/>
        <rect id="Rectangle_215" data-name="Rectangle 215" width="0.666" height="4.907" transform="translate(34.541 14.208) rotate(-109.76)" fill="#f0f0f0"/>
      </g>
      <g id="freepik--Shadow--inject-4" transform="translate(27.262 225.012)">
        <ellipse id="freepik--path--inject-4" cx="94.203" cy="5.5" rx="94.203" ry="5.5" fill="#f5f5f5"/>
      </g>
      <g id="freepik--oops--inject-4" transform="translate(39.476 32.475)">
        <path id="Path_1762" data-name="Path 1762" d="M86.453,111.569a6.931,6.931,0,0,1,.651-5.408,6.857,6.857,0,0,1,4.572-2.915,7.093,7.093,0,0,1,5.442.612,6.888,6.888,0,0,1,2.915,4.518,8.333,8.333,0,0,1,.083,3.945,5.655,5.655,0,0,1-1.715,2.8,7.545,7.545,0,0,1-3.459,1.642,8.575,8.575,0,0,1-3.829.131,5.694,5.694,0,0,1-2.867-1.7A7.613,7.613,0,0,1,86.453,111.569Zm4.052-.9a4.513,4.513,0,0,0,1.385,2.682,2.862,2.862,0,0,0,4.033-.894,4.981,4.981,0,0,0,.024-3.212,4.161,4.161,0,0,0-1.365-2.536,2.6,2.6,0,0,0-2.216-.394,2.526,2.526,0,0,0-1.773,1.312A4.541,4.541,0,0,0,90.5,110.665Z" transform="translate(-86.2 -94.525)" fill="#263238"/>
        <path id="Path_1763" data-name="Path 1763" d="M118.424,110.539a4.859,4.859,0,0,1,.656-3.916,6.518,6.518,0,0,1,8.323-1.632,5.3,5.3,0,0,1,1.283,6.933,5.677,5.677,0,0,1-3.7,2.313,5.748,5.748,0,0,1-3.965-.321A4.786,4.786,0,0,1,118.424,110.539Zm3.649-.841a2.954,2.954,0,0,0,.938,1.764,1.739,1.739,0,0,0,2.59-.578,3.075,3.075,0,0,0,.068-2.041,2.915,2.915,0,0,0-.928-1.72,1.618,1.618,0,0,0-1.4-.316,1.7,1.7,0,0,0-1.176.909A2.915,2.915,0,0,0,122.073,109.7Z" transform="translate(-102.687 -95.099)" fill="#263238"/>
        <path id="Path_1764" data-name="Path 1764" d="M145.428,112.774,142.45,99.656l3.4-.777.321,1.4a4.616,4.616,0,0,1,1.025-1.492,3.814,3.814,0,0,1,1.666-.821,3.5,3.5,0,0,1,3.275.787A6.224,6.224,0,0,1,154,102.124a5.389,5.389,0,0,1-.311,3.887,3.824,3.824,0,0,1-2.59,1.9,4.164,4.164,0,0,1-1.6.063,3.77,3.77,0,0,1-1.428-.568l1.03,4.533Zm1.754-9.163a2.57,2.57,0,0,0,.855,1.564,1.55,1.55,0,0,0,1.322.272,1.37,1.37,0,0,0,.972-.763,2.915,2.915,0,0,0,0-1.875,2.726,2.726,0,0,0-.831-1.594,1.414,1.414,0,0,0-1.215-.292,1.516,1.516,0,0,0-1.04.811,2.779,2.779,0,0,0-.063,1.875Z" transform="translate(-115.12 -91.882)" fill="#263238"/>
        <path id="Path_1765" data-name="Path 1765" d="M168.8,101.31l3.537-1.161a1.822,1.822,0,0,0,.836.777,2.279,2.279,0,0,0,2.2-.534.724.724,0,0,0,.18-.651.675.675,0,0,0-.549-.52,7.57,7.57,0,0,0-1.652,0,16.338,16.338,0,0,1-2.769,0,2.857,2.857,0,0,1-1.458-.666,2.677,2.677,0,0,1-.675-3.153,3.28,3.28,0,0,1,1.268-1.356,8.153,8.153,0,0,1,2.492-.918,8.978,8.978,0,0,1,2.565-.311,3.357,3.357,0,0,1,1.535.486,4.3,4.3,0,0,1,1.234,1.273l-3.4,1.122a1.22,1.22,0,0,0-.6-.568,1.871,1.871,0,0,0-1.1-.049,1.5,1.5,0,0,0-.85.423.656.656,0,0,0-.16.593.583.583,0,0,0,.486.447,6.006,6.006,0,0,0,1.632-.034,10.892,10.892,0,0,1,2.828-.039,3.056,3.056,0,0,1,1.594.734,2.653,2.653,0,0,1,.807,1.385,3,3,0,0,1-.131,1.715,3.44,3.44,0,0,1-1.283,1.589,7.657,7.657,0,0,1-2.808,1.122,7.133,7.133,0,0,1-3.887.1A3.435,3.435,0,0,1,168.8,101.31Z" transform="translate(-128.357 -89.295)" fill="#263238"/>
        <path id="Path_1766" data-name="Path 1766" d="M193.85,85.57h3.989v3.061l-.734,6.156h-2.468l-.787-6.146Zm.194,10.145h3.722v3.294h-3.722Z" transform="translate(-141.547 -85.57)" fill="#263238"/>
      </g>
      <g id="freepik--error-404--inject-4" transform="translate(34.569 76.553)">
        <path id="Path_1767" data-name="Path 1767" d="M113.739,158.789h-.087c-2.186-.85-3.493-1.676-4.174-2.672a2.5,2.5,0,0,1-1.569-.214,3.158,3.158,0,0,1-1.356-1.273,1.234,1.234,0,0,1-1.176.18,2.983,2.983,0,0,1-1.458-1.171,1.083,1.083,0,0,1-.758.209c-1.458-.117-3.4-2.993-3.542-6.054a.253.253,0,0,1,.233-.257.243.243,0,0,1,.253.233c.136,2.915,2,5.5,3.1,5.592a.612.612,0,0,0,.452-.131,5.966,5.966,0,0,1-.486-4.577c.418-1.458.787-2.031,1.234-1.943.836.209.724,3.4.282,5.485a2.983,2.983,0,0,1-.408,1.059,2.623,2.623,0,0,0,1.234,1.074.768.768,0,0,0,.811-.17,5.5,5.5,0,0,1,.058-3.853c.68-2.152.972-2.211,1.122-2.25a.321.321,0,0,1,.311.107c.452.51-.087,3.853-.651,5.5a2.429,2.429,0,0,1-.272.564,2.7,2.7,0,0,0,1.21,1.215,2.142,2.142,0,0,0,1.108.209c-.044-.092-.083-.185-.121-.282a4.436,4.436,0,0,1,.578-3.683c.51-.947.928-1.394,1.317-1.394h0a.539.539,0,0,1,.486.321c.423.782.117,3.362-.719,4.645a1.943,1.943,0,0,1-.787.68,8.77,8.77,0,0,0,3.887,2.376.238.238,0,0,1,.141.311.248.248,0,0,1-.253.16Zm-2.76-8s-.277,0-.889,1.142a3.964,3.964,0,0,0-.549,3.28,2.458,2.458,0,0,0,.146.326,1.4,1.4,0,0,0,.641-.534,6.458,6.458,0,0,0,.753-4.013C111.047,150.816,110.979,150.787,110.979,150.787Zm-3.488-2.045a11.335,11.335,0,0,0-.651,1.715,5.529,5.529,0,0,0-.185,3.182l.044-.126a15.931,15.931,0,0,0,.807-4.771Zm-3.2-1.53a3.725,3.725,0,0,0-.656,1.564,5.461,5.461,0,0,0,.35,4,3,3,0,0,0,.219-.68c.52-2.386.374-4.543.1-4.888Z" transform="translate(-85.788 -123.701)" fill="#263238"/>
        <path id="Path_1768" data-name="Path 1768" d="M164.228,217.4a4.373,4.373,0,0,1-2.216-.578.248.248,0,0,1-.087-.335.238.238,0,0,1,.33-.083c1.735,1.015,3.974.306,4.436-.437a.428.428,0,0,0,.073-.326,3.945,3.945,0,0,1-2.492-.709c-1.239-.773-1.336-1.006-1.326-1.19a.3.3,0,0,1,.165-.253c.486-.243,2.677.763,3.59,1.365a1.765,1.765,0,0,1,.3.253,1.725,1.725,0,0,0,.923-.554,1.394,1.394,0,0,0,.287-.549h-.1a3.083,3.083,0,0,1-2.386-1.025c-.573-.525-.792-.889-.719-1.176a.437.437,0,0,1,.35-.316,4.381,4.381,0,0,1,3.007,1.283,1.3,1.3,0,0,1,.311.573,6.159,6.159,0,0,0,2.1-2.075.243.243,0,0,1,.34-.058.248.248,0,0,1,.058.34,6.082,6.082,0,0,1-2.454,2.308,1.793,1.793,0,0,1-.423.972,2.235,2.235,0,0,1-1.059.685.894.894,0,0,1-.136.675A3.434,3.434,0,0,1,164.228,217.4Zm-.432-3.372c.165.121.4.282.734.486a3.887,3.887,0,0,0,1.749.641A11.987,11.987,0,0,0,163.8,214.03Zm1.7-2.065a2.1,2.1,0,0,0,.568.675,2.582,2.582,0,0,0,2.007.894h.155a.879.879,0,0,0-.214-.4A4.1,4.1,0,0,0,165.492,211.965Z" transform="translate(-117.805 -156.845)" fill="#263238"/>
        <path id="Path_1769" data-name="Path 1769" d="M124.007,184.383l-7.57,1.375-6.875-37.518-14.6,2.653L71.15,193.163l2.556,13.949,30.536-5.544,2.089,11.408,14.6-2.663-2.089-11.408,7.57-1.375ZM85.7,191.365l12.632-22.141,3.522,19.211Z" transform="translate(-71.15 -124.492)" fill="#8472fc"/>
        <path id="Path_1770" data-name="Path 1770" d="M249.692,120.564a28.588,28.588,0,0,0-1.555-6.909,22.5,22.5,0,0,0-3.4-5.923,19.614,19.614,0,0,0-6.17-5.034,29.511,29.511,0,0,0-10.31-2.969q-13.337-1.739-20.785,4.732t-9.814,24.779a67.694,67.694,0,0,0-.486,13.769,29.108,29.108,0,0,0,2.322,10.169,21.252,21.252,0,0,0,7.118,8.639q4.6,3.231,12.632,4.271,14.275,1.861,21.169-5.485t9.134-24.827A62.907,62.907,0,0,0,249.692,120.564Z" transform="translate(-135.865 -99.362)" fill="#8472fc"/>
        <path id="Path_1771" data-name="Path 1771" d="M229.284,166.764c-1.171-.039-2.429-.146-3.7-.311-4.45-.578-7.89-1.705-10.232-3.348a15.868,15.868,0,0,1-5.344-6.51l-.024-.053a23.931,23.931,0,0,1-1.812-8.26,62.288,62.288,0,0,1,.447-12.681c1.735-13.468,5.315-19.089,8.012-21.431,3.148-2.731,7.4-3.965,12.987-3.77,1.147.039,2.361.141,3.61.3a25.111,25.111,0,0,1,8.439,2.361,14.474,14.474,0,0,1,4.523,3.639,17.127,17.127,0,0,1,2.6,4.5,23.215,23.215,0,0,1,1.244,5.612,57.656,57.656,0,0,1-.141,13.954c-1.346,10.465-3.95,17.821-7.735,21.864-2.808,2.993-7.021,4.373-12.88,4.149Z" transform="translate(-141.528 -105.026)" fill="#263238"/>
        <path id="Path_1772" data-name="Path 1772" d="M245.5,128.909l.063-1.841-1.132-.369a11.089,11.089,0,0,0-.3-1.846l.972-.709-.651-1.73-1.185.1a11.088,11.088,0,0,0-.972-1.589l.612-1.025-1.263-1.346-1.059.544a11.255,11.255,0,0,0-1.516-1.1l.17-1.176-1.681-.763-.768.9a11.3,11.3,0,0,0-1.822-.428l-.287-1.151-1.846-.063-.364,1.127a11.437,11.437,0,0,0-1.846.3l-.714-.972-1.73.646.1,1.185a11.145,11.145,0,0,0-1.589.972l-1.02-.617-1.351,1.258.544,1.064a10.583,10.583,0,0,0-1.093,1.521l-1.176-.18-.768,1.681.909.768a10.413,10.413,0,0,0-.428,1.827l-1.156.292-.063,1.837,1.132.369a10.98,10.98,0,0,0,.3,1.851l-.972.7.651,1.73,1.186-.1a10.452,10.452,0,0,0,.972,1.589l-.617,1.025,1.263,1.346,1.059-.539a11.225,11.225,0,0,0,1.516,1.093l-.175,1.176,1.681.763.773-.9a11.234,11.234,0,0,0,1.827.423l.287,1.156,1.841.063.364-1.132a10.983,10.983,0,0,0,1.851-.3l.7.972,1.73-.646-.092-1.181a12.092,12.092,0,0,0,1.589-.972l1.02.612,1.351-1.258-.539-1.064a10.508,10.508,0,0,0,1.088-1.516l1.176.175.768-1.681-.9-.768a10.8,10.8,0,0,0,.423-1.822Zm-12.438,5.962a7.288,7.288,0,1,1,5.24-1.956,7.288,7.288,0,0,1-5.24,1.956Z" transform="translate(-148.24 -107.566)" fill="#8472fc"/>
        <path id="Path_1773" data-name="Path 1773" d="M269.711,202.469l.136-1.244-.748-.3a7.773,7.773,0,0,0-.107-1.263l.675-.432-.345-1.2h-.807a7.2,7.2,0,0,0-.578-1.122l.457-.661-.777-.972-.743.311a7.807,7.807,0,0,0-.972-.816l.18-.787-1.093-.6-.573.578a7.712,7.712,0,0,0-1.2-.384l-.136-.792-1.239-.141-.306.748a7.214,7.214,0,0,0-1.258.117l-.432-.69-1.2.355v.807a7.238,7.238,0,0,0-1.122.583l-.661-.486-.972.777.311.743a7.838,7.838,0,0,0-.811.972l-.787-.175-.6,1.093.573.568a7.287,7.287,0,0,0-.384,1.21l-.8.131-.131,1.239.743.311a7.158,7.158,0,0,0,.112,1.254l-.685.432.35,1.2h.811a7.391,7.391,0,0,0,.583,1.117l-.486.661.777.972.753-.316a7.071,7.071,0,0,0,.972.811l-.17.8,1.093.6.568-.568a7.834,7.834,0,0,0,1.2.374l.141.8,1.239.136.3-.743a7.881,7.881,0,0,0,1.283-.107l.432.685,1.2-.35v-.807a7.994,7.994,0,0,0,1.127-.583l.651.486.972-.782-.316-.743a7.914,7.914,0,0,0,.821-.972l.782.175.6-1.093-.573-.564a8,8,0,0,0,.374-1.2Zm-6.253-.486a2.167,2.167,0,1,1-.86-2.939A2.167,2.167,0,0,1,263.458,201.983Z" transform="translate(-164.78 -147.32)" fill="#8472fc" opacity="0.3"/>
        <path id="Path_1774" data-name="Path 1774" d="M281.285,160.925l-1.458-1h0a8.06,8.06,0,0,0-.583-1.506l.369-1.458-2.1-2.25-1.458.272a8.262,8.262,0,0,0-1.458-.685h0l-.9-1.516-3.075-.1-1,1.458h0a7.736,7.736,0,0,0-1.506.583l-1.458-.374-2.25,2.1.272,1.458h0a7.617,7.617,0,0,0-.685,1.458l-1.511.9-.107,3.075,1.458,1a7.827,7.827,0,0,0,.583,1.516h0l-.369,1.458,2.1,2.25,1.458-.267a8.336,8.336,0,0,0,1.458.685h0l.894,1.511,3.08.107,1-1.458a8.071,8.071,0,0,0,1.521-.583h0l1.458.369,2.25-2.1L279,166.371a8.114,8.114,0,0,0,.685-1.458h0l1.511-.9ZM271.7,165.6a3.459,3.459,0,1,1,3.576-3.338A3.459,3.459,0,0,1,271.7,165.6Z" transform="translate(-169.469 -126.775)" fill="#fff"/>
        <path id="Path_1775" data-name="Path 1775" d="M317.956,111.788l.253-.607h0a3.256,3.256,0,0,0,.486-.335h.564l.661-.972-.214-.52a3,3,0,0,0,.194-.539h0l.486-.447-.2-1.142-.612-.253h0a3.086,3.086,0,0,0-.335-.486v-.564l-.947-.661-.525.219h0a2.7,2.7,0,0,0-.593-.136l-.447-.486-1.137.2-.258.612a3.158,3.158,0,0,0-.51.33h-.559l-.661.972.214.52a3,3,0,0,0-.136.593h0l-.486.452.2,1.137.612.253a2.784,2.784,0,0,0,.33.486h0v.559l.972.661.52-.214a3.124,3.124,0,0,0,.6.131h0l.447.486Zm-2.429-3.148a1.3,1.3,0,1,1,1.511,1.049A1.3,1.3,0,0,1,315.527,108.64Z" transform="translate(-195.593 -102.189)" fill="#8472fc"/>
        <path id="Path_1776" data-name="Path 1776" d="M295.214,109.585l-.374-.316a9.669,9.669,0,0,1,2.915-2.429l.228.428A9.168,9.168,0,0,0,295.214,109.585Z" transform="translate(-186.158 -103.207)" fill="#8472fc"/>
        <path id="Path_1777" data-name="Path 1777" d="M303.389,105.308l-.189-.447a11.622,11.622,0,0,1,5.7-.913l-.049.486A11.073,11.073,0,0,0,303.389,105.308Z" transform="translate(-190.456 -101.694)" fill="#8472fc"/>
        <path id="Path_1778" data-name="Path 1778" d="M301.278,110.147l-.4-.272a8.133,8.133,0,0,1,4.8-3.1l.092.486a7.638,7.638,0,0,0-4.489,2.891Z" transform="translate(-189.264 -103.171)" fill="#8472fc"/>
        <path id="Path_1779" data-name="Path 1779" d="M224.424,188.955a.253.253,0,0,1-.175-.078l-1.015-1.049a8.5,8.5,0,0,1-1.53-.282l-1.589.7a.238.238,0,0,1-.228,0l-2.663-1.764a.238.238,0,0,1-.107-.209v-1.73a8.358,8.358,0,0,1-.855-1.3l-1.365-.525a.243.243,0,0,1-.151-.18l-.632-3.129a.243.243,0,0,1,.068-.224l1.049-1.015a9.125,9.125,0,0,1,.282-1.53l-.7-1.589a.238.238,0,0,1,0-.228l1.764-2.663a.228.228,0,0,1,.209-.107l1.73.024a8.025,8.025,0,0,1,1.3-.855l.53-1.365a.238.238,0,0,1,.175-.151l3.129-.632a.238.238,0,0,1,.223.068l1.015,1.049a8.628,8.628,0,0,1,1.535.282l1.584-.7a.248.248,0,0,1,.233,0l2.658,1.764a.262.262,0,0,1,.112.209l-.029,1.73a8.386,8.386,0,0,1,.86,1.3l1.36.53a.238.238,0,0,1,.151.175l.636,3.129a.253.253,0,0,1-.068.224l-1.054,1.02a8.745,8.745,0,0,1-.282,1.526l.7,1.589a.248.248,0,0,1,0,.233l-1.739,2.638a.248.248,0,0,1-.2.107l-1.735-.024a8.928,8.928,0,0,1-1.3.855l-.53,1.365a.238.238,0,0,1-.18.151l-3.129.661Zm-2.735-1.943a.175.175,0,0,1,.068,0,8.1,8.1,0,0,0,1.608.3.272.272,0,0,1,.155.073l.972,1.02,2.867-.578.515-1.331a.267.267,0,0,1,.117-.126,7.8,7.8,0,0,0,1.365-.9.228.228,0,0,1,.16-.053l1.686.024,1.613-2.429-.68-1.545a.243.243,0,0,1,0-.165,8.5,8.5,0,0,0,.3-1.608.248.248,0,0,1,.073-.155l1.02-.972-.578-2.867-1.326-.515a.238.238,0,0,1-.131-.117,7.984,7.984,0,0,0-.9-1.365.253.253,0,0,1-.053-.155v-1.691l-2.429-1.613-1.54.68a.253.253,0,0,1-.17,0,8.259,8.259,0,0,0-1.613-.3.272.272,0,0,1-.155-.073l-.972-1.02-2.867.583-.51,1.351a.248.248,0,0,1-.112.131,7.744,7.744,0,0,0-1.37.9.209.209,0,0,1-.155.053l-1.686-.024-1.618,2.429.68,1.545a.243.243,0,0,1,0,.209,8.325,8.325,0,0,0-.282,1.569.243.243,0,0,1-.073.155l-1.02.972.583,2.867,1.322.515a.267.267,0,0,1,.136.126,7.88,7.88,0,0,0,.894,1.356.233.233,0,0,1,.053.155v1.691l2.429,1.613,1.545-.68a.253.253,0,0,1,.083-.034Zm2.386-1.574a6.472,6.472,0,0,1-5.388-10.048h0a6.477,6.477,0,1,1,5.388,10.048Zm-4.98-9.78a5.962,5.962,0,1,0,3.8-2.57,5.986,5.986,0,0,0-3.8,2.57Z" transform="translate(-144.651 -135.201)" fill="#fff"/>
        <path id="Path_1780" data-name="Path 1780" d="M367.778,188.457l-7.628-1.03,5.043-37.8-14.712-1.982L314.8,180.494,312.92,194.55l30.75,4.149-1.535,11.5,14.712,1.982,1.535-11.5,7.628,1.03Zm-38.587-5.208,18.832-17.165-2.585,19.357Z" transform="translate(-195.454 -124.184)" fill="#8472fc"/>
        <path id="Path_1781" data-name="Path 1781" d="M393.853,213.454h-.063a.243.243,0,0,1-.194-.282l11.369-62.161a.248.248,0,0,1,.282-.194.243.243,0,0,1,.194.282L394.1,213.254A.248.248,0,0,1,393.853,213.454Z" transform="translate(-236.931 -125.815)" fill="#263238"/>
        <path id="Path_1782" data-name="Path 1782" d="M413.987,152.933a.4.4,0,1,1-.384-.413A.4.4,0,0,1,413.987,152.933Z" transform="translate(-247.007 -126.692)" fill="#263238"/>
        <path id="Path_1783" data-name="Path 1783" d="M410.657,170.233a.4.4,0,1,1-.106-.286A.4.4,0,0,1,410.657,170.233Z" transform="translate(-245.295 -135.587)" fill="#263238"/>
        <path id="Path_1784" data-name="Path 1784" d="M407.327,187.563a.4.4,0,0,1-.413.384.394.394,0,0,1-.384-.408.4.4,0,0,1,.413-.389.4.4,0,0,1,.384.413Z" transform="translate(-243.582 -144.497)" fill="#263238"/>
        <path id="Path_1785" data-name="Path 1785" d="M400.769,205.532a.4.4,0,1,1-.184-.381A.4.4,0,0,1,400.769,205.532Z" transform="translate(-240.212 -153.721)" fill="#263238"/>
        <path id="Path_1786" data-name="Path 1786" d="M400.657,222.133a.394.394,0,0,1-.413.384.4.4,0,1,1,.413-.384Z" transform="translate(-240.154 -162.271)" fill="#263238"/>
        <path id="Path_1787" data-name="Path 1787" d="M397.327,239.438a.4.4,0,1,1-.384-.408A.4.4,0,0,1,397.327,239.438Z" transform="translate(-238.441 -171.171)" fill="#263238"/>
        <path id="Path_1788" data-name="Path 1788" d="M394,256.735a.4.4,0,0,1-.413.389.4.4,0,1,1,.413-.389Z" transform="translate(-236.729 -180.063)" fill="#263238"/>
        <path id="Path_1789" data-name="Path 1789" d="M390.657,274.043a.4.4,0,1,1-.384-.413.394.394,0,0,1,.384.413Z" transform="translate(-235.012 -188.96)" fill="#263238"/>
        <path id="Path_1790" data-name="Path 1790" d="M400.537,205.662a.238.238,0,0,1-.233-.189.243.243,0,0,1,.185-.292l1.2-.258a.243.243,0,1,1,.1.476l-1.2.258Z" transform="translate(-240.378 -153.632)" fill="#263238"/>
        <path id="Path_1791" data-name="Path 1791" d="M407.131,197.24a41.325,41.325,0,0,0-1.458,4.548,39.859,39.859,0,0,0-.384,5.553" transform="translate(-242.945 -149.685)" fill="#263238"/>
        <path id="Path_1792" data-name="Path 1792" d="M405.033,207.309h0a.253.253,0,0,1-.243-.248,39.465,39.465,0,0,1,.394-5.6,40.924,40.924,0,0,1,1.458-4.587.243.243,0,1,1,.452.175,40.992,40.992,0,0,0-1.458,4.514,40.914,40.914,0,0,0-.384,5.5A.243.243,0,0,1,405.033,207.309Z" transform="translate(-242.688 -149.41)" fill="#263238"/>
      </g>
      <g id="freepik--Character--inject-4" transform="translate(55.344 148.101)">
        <path id="Path_1793" data-name="Path 1793" d="M222.45,274.908c.675-10.883-.564-30.672,19.9-28.049,21.927,2.8,15.654,28.447,15.654,28.447Z" transform="translate(-169.715 -246.622)" fill="#263238"/>
        <circle id="Ellipse_85" data-name="Ellipse 85" cx="8.93" cy="8.93" r="8.93" transform="translate(57.924 3.886)" fill="#fff"/>
        <path id="Path_1794" data-name="Path 1794" d="M244.2,254.539c-4.232-.719-8.745,2.4-9.2,5.553l16.767,1.545C251.174,258.038,247.55,255.113,244.2,254.539Z" transform="translate(-176.167 -250.639)" fill="#263238"/>
        <path id="Path_1795" data-name="Path 1795" d="M260,267.91c-.121,2.337-1.394,4.169-2.842,4.091s-2.526-2.026-2.429-4.373,1.394-4.169,2.842-4.091S260.112,265.578,260,267.91Z" transform="translate(-186.305 -255.318)" fill="#263238"/>
        <path id="Path_1796" data-name="Path 1796" d="M241.546,272.452a9.416,9.416,0,1,1,9.416-9.416A9.416,9.416,0,0,1,241.546,272.452Zm0-17.855a8.444,8.444,0,1,0,8.444,8.439,8.444,8.444,0,0,0-8.444-8.439Z" transform="translate(-174.692 -250.22)" fill="#8472fc"/>
        <path id="Path_1797" data-name="Path 1797" d="M290.184,289.558h-.058a.238.238,0,0,1-.18-.292,32.475,32.475,0,0,0-.044-13.313.25.25,0,0,1,.486-.117,32.666,32.666,0,0,1,.044,13.541A.243.243,0,0,1,290.184,289.558Z" transform="translate(-204.391 -261.544)" fill="#fff" opacity="0.3"/>
        <path id="Path_1798" data-name="Path 1798" d="M284.969,264.253a.253.253,0,0,1-.224-.141,16.971,16.971,0,0,0-2.3-3.722.244.244,0,1,1,.379-.306,17.719,17.719,0,0,1,2.366,3.824.238.238,0,0,1-.117.321A.263.263,0,0,1,284.969,264.253Z" transform="translate(-200.532 -253.497)" fill="#fff" opacity="0.3"/>
        <path id="Path_1799" data-name="Path 1799" d="M126.04,390h-.18a2.43,2.43,0,0,1,.136-4.859h.044c1.4,0,4.781-1.705,11.845-12.841a2.429,2.429,0,0,1,3.649-.53,100.794,100.794,0,0,0,18.045,12.38,2.429,2.429,0,1,1-2.2,4.329,103.367,103.367,0,0,1-16.908-11.243C134.552,386.148,130.16,390,126.04,390Z" transform="translate(-118.84 -310.656)" fill="#263238"/>
        <path id="Path_1800" data-name="Path 1800" d="M154.682,342.867h-.209a1.458,1.458,0,0,1-1.234-1.647c.345-2.429-.083-11.481-3.148-18.526a1.458,1.458,0,0,1,.515-1.788c6.656-4.533,20.834-5.077,21.436-5.1a1.458,1.458,0,0,1,.1,2.915c-.131,0-12.525.486-18.89,3.984,2.711,7.016,3.328,15.756,2.876,18.919a1.458,1.458,0,0,1-1.443,1.239Z" transform="translate(-132.449 -282.194)" fill="#263238"/>
        <path id="Path_1801" data-name="Path 1801" d="M152.706,365.9c-.972-2.288-5.344-2.031-7.9-.068a12.729,12.729,0,0,0-3.4,5.344,1.72,1.72,0,0,0,1.943,2.06c1.676-.146,3.974-2.58,3.974-2.58-1.53,1.5.447,2.56,3.4.389C152.331,369.832,153.789,368.457,152.706,365.9Z" transform="translate(-128.024 -307.108)" fill="#8472fc"/>
        <path id="Path_1802" data-name="Path 1802" d="M336.452,290.06a.156.156,0,0,1-.068,0,.238.238,0,0,1-.165-.3c.646-2.254,1.351-3.629,2.279-4.373a2.517,2.517,0,0,1,.078-1.584,3.134,3.134,0,0,1,1.147-1.458,1.234,1.234,0,0,1-.287-1.156,3,3,0,0,1,1.04-1.535,1.088,1.088,0,0,1-.277-.734c0-1.458,2.677-3.654,5.714-4.072a.245.245,0,0,1,.068.486c-2.886.394-5.306,2.483-5.3,3.586a.636.636,0,0,0,.175.442,5.947,5.947,0,0,1,4.509-.909c1.492.287,2.1.6,2.031,1.054-.136.85-3.309,1.03-5.437.777a3,3,0,0,1-1.093-.316,2.614,2.614,0,0,0-.972,1.326.763.763,0,0,0,.238.8,5.524,5.524,0,0,1,3.848-.292c2.2.486,2.284.753,2.337.913a.326.326,0,0,1-.083.326c-.462.486-3.838.258-5.534-.16a2.385,2.385,0,0,1-.588-.219,2.648,2.648,0,0,0-1.1,1.317,2.055,2.055,0,0,0-.112,1.117,2.791,2.791,0,0,1,.267-.141,4.4,4.4,0,0,1,3.722.243c.972.423,1.458.8,1.506,1.186a.544.544,0,0,1-.277.486c-.743.486-3.338.418-4.689-.3a1.944,1.944,0,0,1-.748-.724,8.792,8.792,0,0,0-2.016,4.062A.248.248,0,0,1,336.452,290.06Zm2.633-4.533a1.458,1.458,0,0,0,.593.593,6.466,6.466,0,0,0,4.062.389c.165-.068.19-.121.19-.121s-.024-.272-1.215-.782a3.983,3.983,0,0,0-3.318-.253A2.811,2.811,0,0,0,339.085,285.527Zm1.623-3.192.121.034a16.076,16.076,0,0,0,4.829.364,10.542,10.542,0,0,0-1.768-.486,5.529,5.529,0,0,0-3.182.087Zm.612-2.731a2.876,2.876,0,0,0,.695.155c2.429.287,4.562-.049,4.859-.355a3.845,3.845,0,0,0-1.613-.51A5.466,5.466,0,0,0,341.32,279.6Z" transform="translate(-228.202 -261.133)" fill="#263238"/>
        <path id="Path_1803" data-name="Path 1803" d="M177.712,407.3c.321-.1.214-.413-.146-.413h-6.579c-12.525-1.326-21.276.452-15.761.87s-.389.33-4.416,1.856,29.953,1.909,33.038,0C186.685,407.855,173.271,408.725,177.712,407.3Z" transform="translate(-132.711 -328.773)" fill="#263238"/>
        <path id="Path_1804" data-name="Path 1804" d="M240.39,351.5l-57.234-1.9L180.78,294.11l67.588,1.511Z" transform="translate(-148.291 -271.038)" fill="#8472fc"/>
        <path id="Path_1805" data-name="Path 1805" d="M217.339,350.553a.243.243,0,0,1-.243-.223l-4.587-55.738a.248.248,0,0,1,.223-.262.253.253,0,0,1,.262.224l4.611,55.738a.243.243,0,0,1-.223.262Z" transform="translate(-164.604 -271.15)" fill="#263238"/>
        <path id="Path_1806" data-name="Path 1806" d="M303.47,353.1l15.382-2.342,4.844-51.6-12.248-1.939Z" transform="translate(-211.371 -272.637)" fill="#5e50b9"/>
        <path id="Path_1807" data-name="Path 1807" d="M303.47,353.1l15.382-2.342,4.844-51.6-12.248-1.939s-2.934,20.269-4.928,34.24S303.47,353.1,303.47,353.1Z" transform="translate(-211.371 -272.637)" opacity="0.2"/>
        <path id="Path_1808" data-name="Path 1808" d="M194.233,344.848l-1.409-32.975a5.962,5.962,0,0,1,6.088-6.214l42.785.972a5.961,5.961,0,0,1,5.767,6.8l-4.742,33.2a5.961,5.961,0,0,1-6.088,5.126l-36.629-1.215A5.961,5.961,0,0,1,194.233,344.848Z" transform="translate(-154.48 -276.974)" fill="#263238"/>
        <path id="Path_1809" data-name="Path 1809" d="M204.978,326.49l6.617.209-.053,1.705-4.144-.131-.039,1.273,3.843.121-.053,1.632-3.843-.126-.049,1.579,4.261.136-.058,1.807-6.739-.214Z" transform="translate(-160.599 -287.685)" fill="#fff"/>
        <path id="Path_1810" data-name="Path 1810" d="M221.4,335.012l.253-7.992,4.12.131a5.937,5.937,0,0,1,1.744.253,1.851,1.851,0,0,1,.972.758,2.254,2.254,0,0,1-.8,3.2,2.991,2.991,0,0,1-.879.292,2.488,2.488,0,0,1,.636.311,2.676,2.676,0,0,1,.379.437,3.123,3.123,0,0,1,.33.486l1.122,2.356-2.789-.092-1.244-2.483a1.914,1.914,0,0,0-.428-.632,1.079,1.079,0,0,0-.6-.2H224l-.1,3.241Zm2.633-4.674,1.04.034a4.191,4.191,0,0,0,.656-.092.656.656,0,0,0,.413-.238.763.763,0,0,0,.17-.457.748.748,0,0,0-.228-.6,1.506,1.506,0,0,0-.913-.238l-1.088-.034Z" transform="translate(-169.175 -287.958)" fill="#fff"/>
        <path id="Path_1811" data-name="Path 1811" d="M239.28,335.542l.253-7.992,4.115.131a5.909,5.909,0,0,1,1.744.253,1.832,1.832,0,0,1,.972.758,2.339,2.339,0,0,1-.792,3.2,3.047,3.047,0,0,1-.879.292,2.429,2.429,0,0,1,.632.311,2.35,2.35,0,0,1,.384.432,3.338,3.338,0,0,1,.33.486l1.122,2.352-2.789-.087-1.244-2.483a1.944,1.944,0,0,0-.428-.632,1.01,1.01,0,0,0-.6-.2h-.214l-.107,3.246Zm2.628-4.674,1.045.029a3.5,3.5,0,0,0,.656-.087.636.636,0,0,0,.408-.238.709.709,0,0,0,.17-.457.739.739,0,0,0-.224-.6,1.458,1.458,0,0,0-.918-.238l-1.083-.034Z" transform="translate(-178.368 -288.23)" fill="#fff"/>
        <path id="Path_1812" data-name="Path 1812" d="M256.3,332.086a3.785,3.785,0,0,1,4.256-4.008,4.178,4.178,0,0,1,3.041,1.171,4.042,4.042,0,0,1,.972,3.037,4.961,4.961,0,0,1-.544,2.284,3.4,3.4,0,0,1-1.409,1.351,4.48,4.48,0,0,1-2.24.428,5.141,5.141,0,0,1-2.225-.486,3.4,3.4,0,0,1-1.39-1.409,4.475,4.475,0,0,1-.462-2.366Zm2.468.087a2.7,2.7,0,0,0,.394,1.754,1.71,1.71,0,0,0,2.458.092,2.978,2.978,0,0,0,.486-1.846,2.512,2.512,0,0,0-.4-1.666,1.564,1.564,0,0,0-1.185-.539,1.506,1.506,0,0,0-1.219.486,2.7,2.7,0,0,0-.53,1.72Z" transform="translate(-187.114 -288.486)" fill="#fff"/>
        <path id="Path_1813" data-name="Path 1813" d="M275.91,336.747l.253-8,4.115.131a6.079,6.079,0,0,1,1.744.253,1.88,1.88,0,0,1,.972.758,2.182,2.182,0,0,1,.33,1.307,2.148,2.148,0,0,1-1.122,1.9,3.211,3.211,0,0,1-.879.287,2.43,2.43,0,0,1,.632.316,2.351,2.351,0,0,1,.384.432,3.124,3.124,0,0,1,.33.486l1.122,2.356L281,336.888l-1.244-2.488a1.9,1.9,0,0,0-.428-.627,1.049,1.049,0,0,0-.6-.209h-.214l-.107,3.246Zm2.629-4.679,1.045.034a3.5,3.5,0,0,0,.656-.087.656.656,0,0,0,.408-.238.719.719,0,0,0,.17-.486.729.729,0,0,0-.224-.6,1.457,1.457,0,0,0-.918-.238l-1.083-.034Z" transform="translate(-197.201 -288.847)" fill="#fff"/>
        <path id="Path_1814" data-name="Path 1814" d="M242.867,364.931a.641.641,0,0,1-.486-.209l-4.159-4.553-4.489,4.1a.636.636,0,0,1-.9-.039l-4.159-4.553-4.489,4.1a.636.636,0,0,1-.9-.039l-4.164-4.552-4.484,4.1a.646.646,0,0,1-.486.165.656.656,0,0,1-.442-.209l-4.159-4.548-4.484,4.1a.641.641,0,0,1-.9-.039.632.632,0,0,1,.044-.9l4.956-4.533a.641.641,0,0,1,.9.039l4.159,4.552,4.484-4.1a.666.666,0,0,1,.462-.165.646.646,0,0,1,.442.209l4.159,4.552,4.489-4.1a.632.632,0,0,1,.9.039l4.159,4.553,4.489-4.1a.636.636,0,0,1,.9.039l4.645,5.043a.641.641,0,0,1-.486,1.069Z" transform="translate(-160.227 -303.452)" fill="#fff"/>
        <path id="Path_1815" data-name="Path 1815" d="M119.663,397.451,116.621,396l-2.711-13.2,1.472-1.618Z" transform="translate(-113.91 -315.804)" fill="#8472fc"/>
        <path id="Path_1816" data-name="Path 1816" d="M121.22,397.451l4.037-2.361L121.8,384.217l-4.859-3.037Z" transform="translate(-115.468 -315.804)" fill="#5e50b9"/>
        <path id="Path_1817" data-name="Path 1817" d="M121.22,397.451l4.037-2.361Z" transform="translate(-115.468 -315.804)" fill="#fff" opacity="0.2"/>
        <path id="Path_1818" data-name="Path 1818" d="M259.143,406.224h-.335a2.43,2.43,0,0,1,.131-4.859c3.741.121,11.661-2.177,16.189-6.569a2.428,2.428,0,0,1,.972-.583c7.672-2.3,10.524,2.347,10.64,2.546l-4.178,2.473a.485.485,0,0,0,.053.087c-.044-.063-1.132-1.458-4.591-.6C272.344,403.9,263.627,406.224,259.143,406.224Z" transform="translate(-187.192 -322.177)" fill="#263238"/>
        <path id="Path_1819" data-name="Path 1819" d="M251.292,408.4l-8.848-.554-.695-16.315,11.889.442Z" transform="translate(-179.638 -321.125)" fill="#8472fc"/>
        <path id="Path_1820" data-name="Path 1820" d="M261.39,408.867l2.07-2.06,1.283-10.169-1.006-4.2Z" transform="translate(-189.736 -321.593)" fill="#5e50b9"/>
        <path id="Path_1821" data-name="Path 1821" d="M261.39,408.867l2.07-2.06.277-14.367Z" transform="translate(-189.736 -321.593)" fill="rgba(0,0,0,0)" opacity="0.2"/>
        <path id="Path_1822" data-name="Path 1822" d="M347.846,367.343a1.457,1.457,0,0,1-.879-.3c-5.053-3.838-11.879-10.655-14.5-17.229a1.283,1.283,0,0,1-.083-.3c-1.278-7.6-2.5-23.588-2.551-24.264a1.462,1.462,0,0,1,2.915-.219c0,.16,1.249,16.305,2.492,23.841,2.614,6.394,9.717,12.958,13.5,15.844a1.458,1.458,0,0,1-.884,2.619Z" transform="translate(-224.924 -286.244)" fill="#263238"/>
        <path id="Path_1823" data-name="Path 1823" d="M376.122,410.654a6.753,6.753,0,0,1-3.8-1.516,1.458,1.458,0,0,1,1.71-2.361,4.016,4.016,0,0,0,2.089.972,1.458,1.458,0,0,1,0,2.915Z" transform="translate(-246.46 -328.822)" fill="#263238"/>
        <path id="Path_1824" data-name="Path 1824" d="M373.728,408.037c1.56-4.63,7.953-3.717,10.159-3.027a23.21,23.21,0,0,1,5.378,2.332c1.19.777,1.21,2.084-.379,2.828-1.943.913-6.88.1-6.88.1,2.546,1.113,0,2.915-4.475,1.147C376.079,410.845,373.179,409.737,373.728,408.037Z" transform="translate(-247.458 -327.764)" fill="#8472fc"/>
        <path id="Path_1825" data-name="Path 1825" d="M332.381,322.7c-.578,3.935-3.838,6.836-6.491,6.447s-2.76-3.887-2.182-7.842,1.628-6.8,4.28-6.413S332.959,318.779,332.381,322.7Z" transform="translate(-221.629 -281.704)" fill="#263238"/>
        <circle id="Ellipse_86" data-name="Ellipse 86" cx="0.398" cy="0.398" r="0.398" transform="translate(46.229 24.506)" fill="#263238"/>
        <path id="Path_1826" data-name="Path 1826" d="M217.367,303.358a.4.4,0,1,1-.4-.4A.4.4,0,0,1,217.367,303.358Z" transform="translate(-166.692 -275.588)" fill="#263238"/>
        <path id="Path_1827" data-name="Path 1827" d="M218.287,400.258a.4.4,0,1,1-.4-.4.4.4,0,0,1,.4.4Z" transform="translate(-167.165 -325.408)" fill="#263238"/>
        <path id="Path_1828" data-name="Path 1828" d="M225.8,406.168a.4.4,0,1,1-.4-.4A.4.4,0,0,1,225.8,406.168Z" transform="translate(-171.026 -328.447)" fill="#263238"/>
      </g>
      <g id="freepik--robot-parts--inject-4" transform="translate(36.476 225.244)">
        <path id="Path_1829" data-name="Path 1829" d="M78.688,410.754a4.674,4.674,0,0,1-3.561-1.919.243.243,0,1,1,.4-.277c.909,1.312,2.915,2.007,3.79,1.594a.631.631,0,0,0,.228-.165,2.939,2.939,0,0,1-1.71-2.177c-.112-.617-.2-1.458.306-1.564.7-.155,1.613,1.53,1.943,2.808a1.837,1.837,0,0,1,.063.651,2.071,2.071,0,0,0,.865.068.943.943,0,0,0,.67-.36,2.847,2.847,0,0,1-1.122-2.036c-.185-1.331-.044-1.56.1-1.676a.321.321,0,0,1,.335-.034c.52.219,1.147,2.1,1.268,3.173a1.292,1.292,0,0,1,0,.335,1.9,1.9,0,0,0,.656.126,2.084,2.084,0,0,0,1.171-.306c-.068-.044-.131-.092-.194-.141a2.375,2.375,0,0,1-.622-2.1c.068-.763.238-1.181.544-1.312a.549.549,0,0,1,.588.117,3.362,3.362,0,0,1,.841,2.7,1.457,1.457,0,0,1-.248.559,8.886,8.886,0,0,0,3.231-.364.25.25,0,0,1,.117.486,8.012,8.012,0,0,1-3.736.3,2.765,2.765,0,0,1-1.7.564,2.347,2.347,0,0,1-.8-.151,1.36,1.36,0,0,1-1.03.617,2.59,2.59,0,0,1-1.088-.092,1.074,1.074,0,0,1-.486.432,2.022,2.022,0,0,1-.821.146Zm-.418-4.023a2.1,2.1,0,0,0,.039,1,2.454,2.454,0,0,0,1.38,1.8,1.56,1.56,0,0,0-.058-.34A4.733,4.733,0,0,0,78.27,406.731Zm2.706-.423a6.893,6.893,0,0,0,.083,1,2.517,2.517,0,0,0,.739,1.564,7.638,7.638,0,0,0-.821-2.565Zm3.056-.423h0s-.185.092-.253.9a1.91,1.91,0,0,0,.452,1.7,1.489,1.489,0,0,0,.292.185,1.088,1.088,0,0,0,.262-.486,3.041,3.041,0,0,0-.578-2.152C84.1,405.9,84.047,405.885,84.032,405.885Z" transform="translate(-75.075 -405.399)" fill="#263238"/>
        <path id="Path_1830" data-name="Path 1830" d="M227.379,419.147l1.317-2.284-1.317-2.284H225.97l.8,2.284-.8,2.284Z" transform="translate(-152.656 -410.119)" fill="#263238"/>
        <path id="Path_1831" data-name="Path 1831" d="M223.163,418.743a1.19,1.19,0,1,1,0-2.376l-2.235-.447-.6,1.807,1,1.526Z" transform="translate(-149.757 -410.808)" fill="#263238"/>
        <path id="Path_1832" data-name="Path 1832" d="M222.375,414.58h-2.638l-1.317,2.284,1.317,2.284h2.638l1.317-2.284Zm-1.317,3.474a1.19,1.19,0,1,1,1.186-1.19A1.19,1.19,0,0,1,221.058,418.054Z" transform="translate(-148.775 -410.119)" fill="#8472fc"/>
        <path id="Path_1833" data-name="Path 1833" d="M416.857,410.671l-.977-1.7.977-1.7H417.9l-.588,1.7.588,1.7Z" transform="translate(-250.297 -406.366)" fill="#8472fc"/>
        <path id="Path_1834" data-name="Path 1834" d="M419.9,410.374a.884.884,0,1,0,0-1.764l1.662-.33.442,1.341-.738,1.132Z" transform="translate(-252.364 -406.88)" fill="#8472fc"/>
        <path id="Path_1835" data-name="Path 1835" d="M418.582,407.28h1.943l.972,1.7-.972,1.7h-1.943l-.972-1.7Zm.972,2.58a.879.879,0,1,0-.622-.258.884.884,0,0,0,.622.258Z" transform="translate(-251.186 -406.366)" fill="#263238"/>
        <path id="Path_1836" data-name="Path 1836" d="M341.9,416.7h2.2a1.04,1.04,0,0,0,1.035-1.04h0a1.04,1.04,0,0,0-1.035-1.04h-2.2a1.04,1.04,0,0,0-1.04,1.04h0a1.04,1.04,0,0,0,1.04,1.04Z" transform="translate(-211.726 -410.14)" fill="#263238"/>
        <path id="Path_1837" data-name="Path 1837" d="M335.474,413.671a2.167,2.167,0,1,1,.972,3,2.24,2.24,0,0,1-.972-3Z" transform="translate(-208.832 -409.074)" fill="#8472fc"/>
        <rect id="Rectangle_216" data-name="Rectangle 216" width="0.666" height="4.907" transform="translate(127.836 7.883) rotate(-154.76)" fill="#263238"/>
      </g>
    </g>
    <text id="No_Search_Results_" data-name="No Search Results!" transform="translate(422.291 7409.728) rotate(-12.5)" fill="#263238" stroke="rgba(0,0,0,0)" stroke-width="1" font-size="17" font-weight="800" font-family="SegoeUIBlack, Segoe UI"><tspan x="0" y="0">No Search Results!</tspan></text>
  </g>
</svg>
