<svg xmlns="http://www.w3.org/2000/svg" width="29.802" height="13.101" viewBox="0 0 29.802 13.101">
  <path id="icons" d="M922.035,15792.4h-.529a11.438,11.438,0,0,0-1.619.156,22.249,22.249,0,0,0-5.494,1.253,2.258,2.258,0,0,1-.7.156c-.209.079-.4.156-.586.235a1.231,1.231,0,0,0-.29.156,13.5,13.5,0,0,0-1.608.782c-.063,0-.127.079-.2.157-.085,0-.125.078-.182.078-.072,0-.072,0-.181.156-.108.079-.108.079-.158.079-.1,0-.193.156-.265.234a5.465,5.465,0,0,0-1.422,1.408c-1,1.253-.7,3.131-.7,4.619a5.7,5.7,0,0,0,.138,1.486,1.607,1.607,0,0,0,.218.548c.026,0,.051,0,.071.079a2.142,2.142,0,0,0,.593.7c1.245.939,2.915.7,4.42.7a14.258,14.258,0,0,0,2.752-.078c.248-.078.248-.078.453-.156a.913.913,0,0,0,.311-.156c.059,0,.139-.079.178-.079a1.5,1.5,0,0,0,.5-.392c1.1-1.095.614-2.66.815-4.069.041-.313.8-.392,1.057-.47a15.9,15.9,0,0,1,2.733-.235.806.806,0,0,0,.474-.078h.632a2.721,2.721,0,0,0,.586.078,12.229,12.229,0,0,1,3.357.549c.031.469.022.938.022,1.486a4.648,4.648,0,0,0,.089,1.409c.05.156.121.392.158.47a1.847,1.847,0,0,1,.115.313.99.99,0,0,0,.156.234c.109.078.109.078.126.156.052.156.3.313.441.47,1.2.86,2.946.626,4.33.626a16.687,16.687,0,0,0,2.527-.078,1.474,1.474,0,0,0,.789-.234c.159-.079.159-.079.25-.079s.09,0,.2-.156c.109-.078.109-.078.156-.078.18,0,.423-.392.54-.548a1.836,1.836,0,0,0,.252-.47.945.945,0,0,1,.1-.234,2.032,2.032,0,0,0,.11-.313,20.693,20.693,0,0,0,.083-3.522,3.354,3.354,0,0,0-.808-2.426.772.772,0,0,0-.185-.313c-1.245-1.565-3.089-2.191-4.829-3.053a9.493,9.493,0,0,0-2.52-.783c-.2,0-.462-.077-.574-.077a11.071,11.071,0,0,0-3.18-.549A29.12,29.12,0,0,0,922.035,15792.4Zm2.165,2.348c.056.079.214.079.348.079a21.663,21.663,0,0,1,4.461.7,1.627,1.627,0,0,1,.672.156,5.264,5.264,0,0,0,1.511.471,1.869,1.869,0,0,1,.589.313.538.538,0,0,0,.316.078,2.28,2.28,0,0,0,.381.235.953.953,0,0,1,.359.156,1.042,1.042,0,0,0,.317.156.739.739,0,0,1,.3.156,3.245,3.245,0,0,1,.308.235c.066.078.124.078.184.156.054,0,.107.079.138.079.189,0,.445.391.564.469l.342.392.066.078c.583.782.382,2.035.382,2.9a5.7,5.7,0,0,1-.025,1.174.481.481,0,0,1-.506.313,9.092,9.092,0,0,1-1.843.078h-2.052a2.238,2.238,0,0,0-.586-.078c-.284,0-.524-.079-.586-.392-.022-.079-.041-.861-.041-1.722a7.273,7.273,0,0,0-.068-1.644.908.908,0,0,1-.092-.313.3.3,0,0,0-.1-.157c-.507-.626-1.272-.626-1.953-.939a12.692,12.692,0,0,0-4.2-.547,15.12,15.12,0,0,0-5.3.626,1.208,1.208,0,0,0-.469.156,2.324,2.324,0,0,0-1.042.47c-.59.626-.405,1.565-.405,2.271,0,.938-.02,1.644-.046,1.721-.119.392-.386.392-.789.392a10.211,10.211,0,0,1-2.305.079,11.139,11.139,0,0,1-2.087-.079c-.2,0-.35-.156-.414-.392s.243-.391.387-.469c.335-.313-.247-.313-.43-.313v-.783c0-.86,0-.86-.023-1.174-.1-1.174.87-1.878,1.761-2.5a16.005,16.005,0,0,1,3.771-1.565,2.787,2.787,0,0,0,.39-.156c.164,0,.164,0,.632-.157a1.453,1.453,0,0,0,.672-.156,15.815,15.815,0,0,1,1.946-.313A29.624,29.624,0,0,1,924.2,15794.751Z" transform="translate(-908.054 -15792.403)" fill="#fff" fill-rule="evenodd"/>
</svg>
