<svg xmlns="http://www.w3.org/2000/svg" width="27.741" height="16.905" viewBox="0 0 27.741 16.905">
  <path id="icons" d="M816.3,15791.17c-.064.078-.064.078-.169.078-.106.078-.106.078-.2.156a1.952,1.952,0,0,1-.216.156.266.266,0,0,0-.189.157c-.069.156-.069.156-.166.234a.874.874,0,0,0-.184.55c0,.155,0,.155,0,7.2,0,3.914.012,7.123.025,7.2a1.69,1.69,0,0,0,1.421,1.173H835.73c1.66-.392,1.371-2.191,1.371-3.522,0-.86,0-.86.138-.86a2.486,2.486,0,0,0,.313.156c.1.078.176.078.268.157a20.137,20.137,0,0,1,2.912,1.095,1.549,1.549,0,0,0,2.147-1.174c.022-.078.039-2.034.039-4.3,0-3.914,0-4.227-.081-4.462a2.23,2.23,0,0,0-.558-.86.766.766,0,0,0-.7-.234,3.336,3.336,0,0,0-1.745.392c-.2.156-.2.156-.339.156-.218.078-.416.155-.61.234-.2.156-.2.156-.333.156a.453.453,0,0,0-.293.079c-.16.077-.16.077-.3.156a1.685,1.685,0,0,0-.608.157.4.4,0,0,1-.223.075c-.013,0-.024-.624-.024-1.406s-.021-1.488-.046-1.565c-.239-.939-.943-1.253-1.871-1.331H816.3Zm18.538,2.27c0,2.9,0,2.9-.024,3.287s-.022.392-.022,3.21,0,2.817.022,3.209c.05.861.024,1.8.024,2.739H817.424v-12.445Zm5.818,3.131v6.105l-.178-.079c-.178-.155-.178-.155-.285-.155-.058,0-.179-.079-.269-.079-.166-.078-.166-.078-.258-.078a12.1,12.1,0,0,1-2.257-.939c-.132-.078-.132-.078-.225-.078-.089-.078-.092-.078-.092-1.644v-1.644c.163-.079.322-.156.473-.234a1.9,1.9,0,0,0,.339-.157.939.939,0,0,0,.609-.232.631.631,0,0,1,.339-.08c.217-.078.416-.157.608-.235.2-.156.2-.156.334-.156a.455.455,0,0,0,.294-.077c.164-.158.355-.158.542-.236Z" transform="translate(-815.177 -15791.17)" fill="#fff" fill-rule="evenodd"/>
</svg>
