<svg xmlns="http://www.w3.org/2000/svg" width="16.782" height="24.666" viewBox="0 0 16.782 24.666">
  <path id="icons" d="M814.145,15788.646a4.13,4.13,0,0,0-1.177,1.1,5.136,5.136,0,0,0-1.038,2.191,28.708,28.708,0,0,0-.131,4.931c0,3.522.012,4.227.067,4.54a5.453,5.453,0,0,0,.158.626,3.554,3.554,0,0,0,.655,1.331c.109.156.109.156.131.234a3.835,3.835,0,0,0,.98,1.018,4.828,4.828,0,0,0,4.059,1.252,3.357,3.357,0,0,0,1.886-.782c.056,0,.11-.078.161-.078.069-.078.069-.078.116-.078a5.473,5.473,0,0,0,1.421-1.409c.991-1.33.97-2.975.989-4.54.022-1.878.022-1.878.022-3.835,0-2.035,0-2.035-.023-2.27a6.1,6.1,0,0,0-.2-1.253,4.2,4.2,0,0,0-.745-1.564c-.109-.079-.109-.079-.128-.157-.014,0-.038-.079-.072-.079a7.8,7.8,0,0,0-1.021-1.017,9.978,9.978,0,0,0-1.4-.861C818.127,15787.552,814.195,15788.568,814.145,15788.646Zm3.428,1.174c.1.079.1.079.259.079a3.548,3.548,0,0,1,2.276,2.5,27.251,27.251,0,0,1,.128,4.54c0,2.113-.018,3.679-.046,3.834a3.3,3.3,0,0,1-.671,1.488,2.878,2.878,0,0,1-3.319,1.33c-.152-.078-.152-.078-.2-.078-.223-.078-.4-.312-.561-.392a3.625,3.625,0,0,1-1.431-2.5c-.023-.235-.04-2.036-.04-3.992,0-2.191.016-3.757.045-3.914a2.742,2.742,0,0,1,.518-1.331c.108-.077.108-.077.128-.155.125-.392.765-.783,1.069-1.019A3.009,3.009,0,0,1,817.573,15789.82Zm-8.029,7.906c-.277.156-.629.313-.76.626a13.91,13.91,0,0,0-.051,1.879,12.721,12.721,0,0,0,.205,2.661,7.663,7.663,0,0,0,.834,1.956.735.735,0,0,0,.264.313.792.792,0,0,0,.206.313.565.565,0,0,0,.085.157c.047.156.207.234.3.392q.553.586,1.2,1.174a7.525,7.525,0,0,0,2.512,1.331c.121,0,.288.077.375.077a6.154,6.154,0,0,0,1.19.313v1.331h-3.7a1.918,1.918,0,0,0-.243.156c-.071.078-.118.078-.135.078-.284.078-.415.626-.424.861a1.208,1.208,0,0,0,.769,1.174h9.9a1.248,1.248,0,0,0,.677-1.565c-.431-1.018-1.8-.7-2.693-.7H818.3v-1.409a8.073,8.073,0,0,0,1.922-.391,1.472,1.472,0,0,0,.333-.157,1.843,1.843,0,0,1,.427-.234c.3-.156.3-.156.432-.235.144,0,.243-.156.355-.234s.217-.157.319-.235.088-.078.138-.078a6.336,6.336,0,0,0,1.538-1.487,13.249,13.249,0,0,0,1.192-2.034,8.142,8.142,0,0,0,.564-3.836,5.666,5.666,0,0,0-.071-1.487,1.184,1.184,0,0,0-1.8-.47c-.7.549-.474,1.723-.474,2.5a7.362,7.362,0,0,1-.72,3.053.678.678,0,0,1-.268.313c-.03.077-.06.156-.094.156a.513.513,0,0,0-.071.156,3.3,3.3,0,0,1-.674.783,5.776,5.776,0,0,1-2.385,1.409,6.456,6.456,0,0,1-3.845,0,.547.547,0,0,1-.337-.157,1.9,1.9,0,0,1-.452-.156,5.035,5.035,0,0,1-.532-.392c-.065,0-.124-.078-.184-.078a.147.147,0,0,0-.137-.079,2.386,2.386,0,0,1-.653-.626l-.434-.469-.09-.079a6.742,6.742,0,0,1-1.257-4.461,6.37,6.37,0,0,0-.063-1.33C810.767,15797.883,810.159,15797.727,809.544,15797.727Z" transform="translate(-808.733 -15787.854)" fill="#fff" fill-rule="evenodd"/>
</svg>
