<svg xmlns="http://www.w3.org/2000/svg" width="21.995" height="19.646" viewBox="0 0 21.995 19.646">
  <path id="icons" d="M913.148,15911.141a.6.6,0,0,1-.17.157.537.537,0,0,0-.315.156c-.041,0-.11.078-.152.078s-.111.079-.146.157c-.063.156-.063.156-.16.234-.053,0-.1.078-.109.156a57.129,57.129,0,0,0-.121,6.34c0,3.914.016,6.184.045,6.262a2.744,2.744,0,0,0,.069.313,1.912,1.912,0,0,0,1.236,1.018h4.787c4.124,0,4.6,0,4.6.078a3.9,3.9,0,0,0,.131.7,7.446,7.446,0,0,1,.2,1.018c.1.627.221,1.253.362,1.879.111.548.111.548.157.783.066.469.205.313.452.156,1.149-.939,2.276-1.8,3.383-2.739a1.2,1.2,0,0,0,.229-.157,1.335,1.335,0,0,0,.228-.234c.517-.392,1.043-.861,1.579-1.253.488-.392,1.083-.234,1.687-.234a5.1,5.1,0,0,0,1.563-.078.54.54,0,0,1,.316-.079c.941-.391.9-1.565.92-2.348.022-1.1.022-1.1.022-5.87,0-3.053-.016-4.932-.044-5.088a1.581,1.581,0,0,0-1.76-1.33c-.591-.079-.591-.079-9.791-.079Zm18.5,2.271v10.332h-1.362a4.439,4.439,0,0,0-1.424.078c-.062,0-.062,0-.169.156-.109.078-.109.078-.2.078-1.061.861-2.106,1.723-3.125,2.5-.064.078-.121.156-.159.156-.073,0-.112-.312-.123-.391a2.927,2.927,0,0,1-.114-.626,9.858,9.858,0,0,0-.4-1.957H914.275v-10.332Z" transform="translate(-911.948 -15911.141)" fill="#fff" fill-rule="evenodd"/>
</svg>
