<svg xmlns="http://www.w3.org/2000/svg" width="24.727" height="19.779" viewBox="0 0 24.727 19.779">
  <path id="code-solid" d="M13.926.056,16.283.74a.464.464,0,0,1,.317.576L11.326,19.481a.464.464,0,0,1-.576.317l-2.357-.684a.464.464,0,0,1-.317-.576L13.351.373A.463.463,0,0,1,13.926.056Zm4.4,4.335L16.65,6.184a.464.464,0,0,0,.031.664l3.5,3.079-3.5,3.079a.46.46,0,0,0-.031.664l1.681,1.793a.464.464,0,0,0,.657.019l5.567-5.215a.461.461,0,0,0,0-.676L18.987,4.372a.461.461,0,0,0-.657.019ZM5.69,4.368.123,9.587a.461.461,0,0,0,0,.676L5.69,15.487a.468.468,0,0,0,.657-.019l1.681-1.793A.464.464,0,0,0,8,13.01L4.5,9.927,8,6.848a.46.46,0,0,0,.031-.664L6.347,4.391a.464.464,0,0,0-.657-.023Z" transform="translate(0.025 -0.037)" fill="#fff"/>
</svg>
