<svg xmlns="http://www.w3.org/2000/svg" width="21.358" height="16.609" viewBox="0 0 21.358 16.609">
  <path id="home-solid" d="M10.368,63.121l-6.836,5.63v6.077a.593.593,0,0,0,.593.593l4.155-.011a.593.593,0,0,0,.59-.593V71.269a.593.593,0,0,1,.593-.593h2.373a.593.593,0,0,1,.593.593v3.546a.593.593,0,0,0,.593.6l4.153.011a.593.593,0,0,0,.593-.593V68.748l-6.835-5.626a.452.452,0,0,0-.567,0Zm10.8,3.827-3.1-2.555V59.258a.445.445,0,0,0-.445-.445H15.545a.445.445,0,0,0-.445.445V61.95l-3.32-2.731a1.78,1.78,0,0,0-2.262,0L.133,66.948a.445.445,0,0,0-.059.627l.945,1.149a.445.445,0,0,0,.627.06L10.368,61.6a.452.452,0,0,1,.567,0l8.722,7.183a.445.445,0,0,0,.627-.059l.945-1.149a.445.445,0,0,0-.063-.628Z" transform="translate(0.028 -58.813)" fill="#fff"/>
</svg>
