<svg xmlns="http://www.w3.org/2000/svg" width="18.643" height="14.208" viewBox="0 0 18.643 14.208">
  <path id="sign-out-alt-solid_1_" data-name="sign-out-alt-solid (1)" d="M18.385,71.711,12.17,77.925a.889.889,0,0,1-1.517-.629V73.745H5.623a.886.886,0,0,1-.888-.888V69.306a.886.886,0,0,1,.888-.888h5.031V64.867a.89.89,0,0,1,1.517-.629l6.215,6.215A.9.9,0,0,1,18.385,71.711ZM7.1,77.74v-1.48a.445.445,0,0,0-.444-.444H3.551a1.182,1.182,0,0,1-1.184-1.184v-7.1a1.182,1.182,0,0,1,1.184-1.184H6.658A.445.445,0,0,0,7.1,65.9v-1.48a.445.445,0,0,0-.444-.444H3.551A3.552,3.552,0,0,0,0,67.531v7.1a3.552,3.552,0,0,0,3.551,3.551H6.658A.445.445,0,0,0,7.1,77.74Z" transform="translate(0 -63.979)" fill="#fff"/>
</svg>
