<svg xmlns="http://www.w3.org/2000/svg" width="17" height="17" viewBox="0 0 17 17">
  <g id="Path_1743" data-name="Path 1743" transform="translate(4 4)" fill="#04e013">
    <path d="M4.5,0A4.5,4.5,0,0,1,9,4.5s0,0,0,0A4.5,4.5,0,1,1,4.5,0Z" stroke="none"/>
    <path d="M 4.5 0 C 2.01471996307373 0 0 2.01471996307373 0 4.5 C 0 6.98528003692627 2.01471996307373 9 4.5 9 C 6.982800006866455 9 8.995969772338867 6.989310264587402 9 4.5 C 9 2.01471996307373 6.98528003692627 0 4.5 0 M 9 4.5 C 9 4.502101421356201 9 4.502871036529541 9 4.502871036529541 C 9 4.502871036529541 9 4.501437187194824 9 4.5 M 4.5 -4 C 9.186920166015625 -4 13 -0.186920166015625 13 4.5 L 13 4.50324010848999 L 12.99999046325684 4.50648021697998 C 12.99631977081299 6.776420116424561 12.11110973358154 8.909390449523926 10.50743007659912 10.51245975494385 C 8.902700424194336 12.11656951904297 6.769220352172852 13 4.5 13 C -0.186920166015625 13 -4 9.186920166015625 -4 4.5 C -4 -0.186920166015625 -0.186920166015625 -4 4.5 -4 Z" stroke="none" fill="rgba(4,224,19,0.18)"/>
  </g>
</svg>
